<svg width="120" height="128" viewBox="0 0 120 128" fill="none" xmlns="http://www.w3.org/2000/svg">
<g clip-path="url(#clip0_40_1437)">
<g filter="url(#filter0_d_40_1437)">
<path d="M87.512 57.002C82.0271 56.8613 82.731 69.407 75.035 69.41C67.3391 69.4129 71.7697 57.0081 64.6776 56.868C57.5853 56.7279 60.7445 69.4824 53.0873 69.4184C45.4301 69.3545 49.3754 56.5898 41.843 56.734C34.3105 56.8782 41.4007 69.4229 31.1402 69.4268" stroke="url(#paint0_linear_40_1437)" stroke-opacity="0.5" stroke-width="2"/>
</g>
<g filter="url(#filter1_d_40_1437)">
<path d="M82.0836 57.7C83.4692 57.7 84.5872 57.8365 85.4379 58.1096C86.2886 58.3827 86.8659 58.8605 87.1698 59.5432C87.4858 60.2173 87.5284 61.1688 87.2974 62.3976C87.1272 63.3021 86.8781 64.0488 86.55 64.6376C86.234 65.2264 85.8207 65.6829 85.3104 66.0072C84.7999 66.3315 84.1741 66.5619 83.4327 66.6984C82.7034 66.8264 81.8466 66.8904 80.8622 66.8904C79.416 66.8904 78.2735 66.7539 77.435 66.4808C76.6087 66.1992 76.0617 65.7171 75.7943 65.0344C75.5269 64.3517 75.5087 63.4045 75.7396 62.1928C75.922 61.2968 76.1711 60.5587 76.4871 59.9784C76.803 59.3896 77.2102 58.9288 77.7085 58.596C78.2067 58.2632 78.8144 58.0328 79.5314 57.9048C80.2486 57.7683 81.0992 57.7 82.0836 57.7ZM82.0471 59.7608C81.6096 59.7608 81.2572 59.8291 80.9898 59.9656C80.7347 60.1021 80.528 60.3581 80.37 60.7336C80.2121 61.1091 80.048 61.6637 79.8779 62.3976C79.7319 63.0717 79.6651 63.5837 79.6773 63.9336C79.6895 64.2835 79.7988 64.5224 80.0054 64.6504C80.2121 64.7699 80.528 64.8296 80.9535 64.8296C81.4152 64.8296 81.7738 64.7613 82.0289 64.6248C82.2841 64.4883 82.4908 64.2323 82.6488 63.8568C82.8189 63.4728 82.9831 62.9181 83.141 62.1928C83.2868 61.5187 83.3536 61.0109 83.3415 60.6696C83.3294 60.3197 83.2199 60.0808 83.0134 59.9528C82.8068 59.8248 82.4847 59.7608 82.0471 59.7608Z" fill="#F0F0F0"/>
<path d="M76.5617 57.8792L71.129 64.0872L67.3373 64.0744L64.3658 57.8792H68.3035L69.2696 60.708C69.3547 60.964 69.3973 61.1944 69.3973 61.3992C69.4094 61.604 69.4094 61.8045 69.3973 62.0008H69.6706C69.695 61.8216 69.7557 61.6211 69.8531 61.3992C69.9503 61.1688 70.0718 60.9469 70.2176 60.7336L72.3505 57.8792H76.5617ZM71.4755 62.5128L70.6552 66.7112H66.681L67.5196 62.5128H71.4755Z" fill="#F0F0F0"/>
<g filter="url(#filter2_d_40_1437)">
<path d="M61.249 57.7C61.7143 57.7 61.9469 57.7 62.132 57.7357C62.6683 57.8389 63.0701 58.1517 63.1609 58.5367C63.1922 58.6696 63.1681 58.8319 63.12 59.1565L61.9737 66.8815C61.8572 67.6048 61.5138 68.1554 60.9431 68.5332C60.3726 68.9111 59.6448 69.1 58.7599 69.1C58.4687 69.1 58.1368 69.0784 57.7643 69.0352C57.3916 69.0028 57.0364 68.9543 56.6988 68.8895C56.2003 68.7905 55.9924 68.4197 56.09 68.0627L56.4022 66.922C56.4729 66.6636 56.7953 66.4767 57.1704 66.4767C57.543 66.4767 57.8166 66.4227 57.9913 66.3148C58.166 66.2068 58.2649 66.0503 58.2882 65.8452L59.3793 58.8758C59.4212 58.608 59.4421 58.4741 59.4984 58.3636C59.6606 58.045 60.0414 57.8055 60.5105 57.7272C60.6732 57.7 60.8652 57.7 61.249 57.7Z" fill="url(#paint1_linear_40_1437)"/>
</g>
<path d="M56.6563 57.8792L55.5807 63.1144C55.3984 64.0531 55.0885 64.7997 54.6509 65.3544C54.2257 65.9005 53.6059 66.2931 52.7915 66.532C51.9894 66.7709 50.92 66.8904 49.583 66.8904C48.307 66.8904 47.2618 66.7624 46.4475 66.5064C45.6454 66.2504 45.0803 65.8408 44.7521 65.2776C44.4361 64.7059 44.3633 63.9507 44.5335 63.012L45.5907 57.8792H49.5284L48.4711 63.1144C48.3739 63.5581 48.3374 63.908 48.3616 64.164C48.386 64.4115 48.5014 64.5864 48.7081 64.6888C48.9146 64.7827 49.2367 64.8296 49.6742 64.8296C50.136 64.8296 50.4884 64.7784 50.7316 64.676C50.9868 64.5651 51.1751 64.3773 51.2966 64.1128C51.4303 63.8483 51.5519 63.4813 51.6612 63.012L52.7004 57.8792H56.6563Z" fill="#F0F0F0"/>
<path d="M38.0399 57.7512C39.4011 57.7512 40.507 57.8877 41.3578 58.1608C42.2085 58.4253 42.7919 58.8947 43.1078 59.5688C43.436 60.2429 43.4785 61.1859 43.2355 62.3976C43.0532 63.2765 42.8162 64.0061 42.5245 64.5864C42.2328 65.1667 41.8439 65.6189 41.3578 65.9432C40.8717 66.2675 40.2579 66.4979 39.5166 66.6344C38.7752 66.7709 37.8698 66.8392 36.8003 66.8392C35.6944 66.8392 34.6856 66.8264 33.7741 66.8008C32.8627 66.7752 31.9876 66.7453 31.149 66.7112L33.0267 64.74C33.4399 64.7741 33.9868 64.7997 34.6674 64.8168C35.348 64.8253 36.0407 64.8296 36.7456 64.8296C37.0616 64.8296 37.3411 64.7955 37.5842 64.7272C37.8273 64.6589 38.0399 64.5309 38.2222 64.3432C38.4167 64.1555 38.5808 63.8909 38.7144 63.5496C38.8603 63.1997 38.9818 62.7475 39.079 62.1928C39.1763 61.6979 39.231 61.2925 39.2431 60.9768C39.2674 60.6611 39.237 60.4136 39.152 60.2344C39.079 60.0552 38.9393 59.9315 38.7327 59.8632C38.5382 59.7949 38.2648 59.7608 37.9123 59.7608C37.4505 59.7608 37.0191 59.7608 36.618 59.7608C36.2169 59.7608 35.8341 59.7608 35.4695 59.7608C35.1171 59.7523 34.7768 59.748 34.4487 59.748L32.9173 57.8792C33.3913 57.8536 33.9018 57.8323 34.4487 57.8152C34.9956 57.7896 35.5728 57.7725 36.1805 57.764C36.7882 57.7555 37.408 57.7512 38.0399 57.7512ZM36.8732 57.8792L35.1049 66.7112H31.149L32.9173 57.8792H36.8732Z" fill="#F0F0F0"/>
</g>
</g>
<defs>
<filter id="filter0_d_40_1437" x="23.1398" y="51.7328" width="72.3979" height="30.694" filterUnits="userSpaceOnUse" color-interpolation-filters="sRGB">
<feFlood flood-opacity="0" result="BackgroundImageFix"/>
<feColorMatrix in="SourceAlpha" type="matrix" values="0 0 0 0 0 0 0 0 0 0 0 0 0 0 0 0 0 0 127 0" result="hardAlpha"/>
<feOffset dy="4"/>
<feGaussianBlur stdDeviation="4"/>
<feComposite in2="hardAlpha" operator="out"/>
<feColorMatrix type="matrix" values="0 0 0 0 0 0 0 0 0 0 0 0 0 0 0 0 0 0 0.2 0"/>
<feBlend mode="normal" in2="BackgroundImageFix" result="effect1_dropShadow_40_1437"/>
<feBlend mode="normal" in="SourceGraphic" in2="effect1_dropShadow_40_1437" result="shape"/>
</filter>
<filter id="filter1_d_40_1437" x="27.149" y="57.7" width="64.2946" height="19.4" filterUnits="userSpaceOnUse" color-interpolation-filters="sRGB">
<feFlood flood-opacity="0" result="BackgroundImageFix"/>
<feColorMatrix in="SourceAlpha" type="matrix" values="0 0 0 0 0 0 0 0 0 0 0 0 0 0 0 0 0 0 127 0" result="hardAlpha"/>
<feOffset dy="4"/>
<feGaussianBlur stdDeviation="2"/>
<feComposite in2="hardAlpha" operator="out"/>
<feColorMatrix type="matrix" values="0 0 0 0 0 0 0 0 0 0 0 0 0 0 0 0 0 0 0.25 0"/>
<feBlend mode="normal" in2="BackgroundImageFix" result="effect1_dropShadow_40_1437"/>
<feBlend mode="normal" in="SourceGraphic" in2="effect1_dropShadow_40_1437" result="shape"/>
</filter>
<filter id="filter2_d_40_1437" x="41.0665" y="42.7" width="37.1084" height="41.4" filterUnits="userSpaceOnUse" color-interpolation-filters="sRGB">
<feFlood flood-opacity="0" result="BackgroundImageFix"/>
<feColorMatrix in="SourceAlpha" type="matrix" values="0 0 0 0 0 0 0 0 0 0 0 0 0 0 0 0 0 0 127 0" result="hardAlpha"/>
<feOffset/>
<feGaussianBlur stdDeviation="7.5"/>
<feComposite in2="hardAlpha" operator="out"/>
<feColorMatrix type="matrix" values="0 0 0 0 0 0 0 0 0 0.960784 0 0 0 0 1 0 0 0 0.4 0"/>
<feBlend mode="normal" in2="BackgroundImageFix" result="effect1_dropShadow_40_1437"/>
<feBlend mode="normal" in="SourceGraphic" in2="effect1_dropShadow_40_1437" result="shape"/>
</filter>
<linearGradient id="paint0_linear_40_1437" x1="77.1442" y1="52.2448" x2="54.3995" y2="90.92" gradientUnits="userSpaceOnUse">
<stop stop-color="#1FE7FF"/>
<stop offset="1" stop-color="#FF1FE7"/>
</linearGradient>
<linearGradient id="paint1_linear_40_1437" x1="55.9302" y1="60.8472" x2="60.8463" y2="67.7309" gradientUnits="userSpaceOnUse">
<stop stop-color="#FBBF24"/>
<stop offset="1" stop-color="#EA580C" stop-opacity="0.9"/>
</linearGradient>
<clipPath id="clip0_40_1437">
<rect width="60" height="30" fill="white" transform="translate(30 49)"/>
</clipPath>
</defs>
</svg>
