<svg width="120" height="40" viewBox="0 0 120 40" fill="none" xmlns="http://www.w3.org/2000/svg">
<g clip-path="url(#clip0_40_1426)">
<g filter="url(#filter0_d_40_1426)">
<path d="M78.3414 15.3347C74.6847 15.2409 75.154 23.6047 70.0234 23.6067C64.8927 23.6086 67.8464 15.3387 63.1184 15.2453C58.3902 15.152 60.4963 23.6549 55.3915 23.6123C50.2867 23.5697 52.9169 15.0599 47.8953 15.156C42.8736 15.2521 47.6005 23.6153 40.7601 23.6179" stroke="url(#paint0_linear_40_1426)" stroke-opacity="0.5" stroke-width="2"/>
</g>
<g filter="url(#filter1_d_40_1426)">
<path d="M74.7224 15.8C75.6461 15.8 76.3915 15.891 76.9586 16.0731C77.5257 16.2551 77.9106 16.5737 78.1132 17.0288C78.3238 17.4782 78.3522 18.1125 78.1982 18.9317C78.0848 19.5347 77.9187 20.0325 77.7 20.4251C77.4893 20.8176 77.2138 21.1219 76.8736 21.3381C76.5332 21.5543 76.116 21.7079 75.6218 21.7989C75.1356 21.8843 74.5644 21.9269 73.9081 21.9269C72.944 21.9269 72.1823 21.8359 71.6233 21.6539C71.0724 21.4661 70.7078 21.1447 70.5295 20.6896C70.3513 20.2345 70.3391 19.603 70.493 18.7952C70.6146 18.1979 70.7807 17.7058 70.9914 17.3189C71.202 16.9264 71.4735 16.6192 71.8056 16.3973C72.1378 16.1755 72.5429 16.0219 73.0209 15.9365C73.499 15.8455 74.0661 15.8 74.7224 15.8ZM74.6981 17.1739C74.4064 17.1739 74.1714 17.2194 73.9932 17.3104C73.8231 17.4014 73.6853 17.5721 73.58 17.8224C73.4747 18.0727 73.3653 18.4425 73.2519 18.9317C73.1546 19.3811 73.11 19.7225 73.1182 19.9557C73.1263 20.189 73.1992 20.3483 73.3369 20.4336C73.4747 20.5133 73.6853 20.5531 73.9689 20.5531C74.2768 20.5531 74.5158 20.5075 74.6859 20.4165C74.8561 20.3255 74.9938 20.1549 75.0992 19.9045C75.2126 19.6485 75.322 19.2787 75.4273 18.7952C75.5245 18.3458 75.569 18.0073 75.561 17.7797C75.5529 17.5465 75.4799 17.3872 75.3422 17.3019C75.2045 17.2165 74.9898 17.1739 74.6981 17.1739Z" fill="#F0F0F0"/>
<path d="M71.0412 15.9195L67.4194 20.0581L64.8916 20.0496L62.9106 15.9195H65.5357L66.1798 17.8053C66.2365 17.976 66.2649 18.1296 66.2649 18.2661C66.273 18.4027 66.273 18.5363 66.2649 18.6672H66.4472C66.4634 18.5477 66.5039 18.4141 66.5688 18.2661C66.6336 18.1125 66.7146 17.9646 66.8118 17.8224L68.2338 15.9195H71.0412ZM67.6504 19.0085L67.1035 21.8075H64.4541L65.0132 19.0085H67.6504Z" fill="#F0F0F0"/>
<g filter="url(#filter2_d_40_1426)">
<path d="M60.8327 15.8C61.1429 15.8 61.298 15.8 61.4214 15.8238C61.7789 15.8926 62.0468 16.1011 62.1073 16.3578C62.1282 16.4464 62.1121 16.5546 62.08 16.771L61.3159 21.921C61.2382 22.4032 61.0092 22.7703 60.6288 23.0221C60.2485 23.2741 59.7633 23.4 59.1733 23.4C58.9792 23.4 58.7579 23.3856 58.5096 23.3568C58.2611 23.3352 58.0244 23.3029 57.7993 23.2597C57.4669 23.1937 57.3283 22.9465 57.3934 22.7085L57.6016 21.948C57.6487 21.7757 57.8636 21.6511 58.1137 21.6511C58.362 21.6511 58.5445 21.6151 58.6609 21.5432C58.7774 21.4712 58.8434 21.3669 58.8588 21.2301L59.5863 16.5838C59.6142 16.4053 59.6282 16.3161 59.6657 16.2424C59.7738 16.03 60.0277 15.8704 60.3404 15.8181C60.4489 15.8 60.5769 15.8 60.8327 15.8Z" fill="url(#paint1_linear_40_1426)"/>
</g>
<path d="M57.7709 15.9195L57.0538 19.4096C56.9323 20.0354 56.7256 20.5331 56.434 20.9029C56.1504 21.267 55.7372 21.5287 55.1943 21.688C54.6596 21.8473 53.9466 21.9269 53.0553 21.9269C52.2047 21.9269 51.5079 21.8416 50.965 21.6709C50.4303 21.5003 50.0535 21.2272 49.8347 20.8517C49.6241 20.4706 49.5755 19.9671 49.689 19.3413L50.3938 15.9195H53.0189L52.3141 19.4096C52.2493 19.7054 52.2249 19.9387 52.2411 20.1093C52.2573 20.2743 52.3343 20.3909 52.4721 20.4592C52.6097 20.5218 52.8245 20.5531 53.1161 20.5531C53.424 20.5531 53.6589 20.5189 53.821 20.4507C53.9912 20.3767 54.1167 20.2515 54.1978 20.0752C54.2869 19.8989 54.3679 19.6542 54.4408 19.3413L55.1336 15.9195H57.7709Z" fill="#F0F0F0"/>
<path d="M45.36 15.8341C46.2674 15.8341 47.0047 15.9252 47.5719 16.1072C48.139 16.2836 48.5279 16.5964 48.7386 17.0459C48.9573 17.4953 48.9857 18.1239 48.8237 18.9317C48.7021 19.5177 48.5441 20.0041 48.3497 20.3909C48.1552 20.7778 47.896 21.0793 47.5719 21.2955C47.2478 21.5117 46.8386 21.6653 46.3444 21.7563C45.8502 21.8473 45.2466 21.8928 44.5336 21.8928C43.7963 21.8928 43.1238 21.8843 42.5161 21.8672C41.9085 21.8501 41.3251 21.8302 40.7661 21.8075L42.0178 20.4933C42.2933 20.5161 42.6579 20.5331 43.1116 20.5445C43.5654 20.5502 44.0272 20.5531 44.4971 20.5531C44.7078 20.5531 44.8941 20.5303 45.0561 20.4848C45.2182 20.4393 45.36 20.3539 45.4815 20.2288C45.6112 20.1037 45.7205 19.9273 45.8097 19.6997C45.9069 19.4665 45.9879 19.165 46.0527 18.7952C46.1175 18.4653 46.154 18.195 46.1621 17.9845C46.1783 17.7741 46.158 17.6091 46.1013 17.4896C46.0527 17.3701 45.9595 17.2877 45.8218 17.2421C45.6922 17.1966 45.5099 17.1739 45.2749 17.1739C44.967 17.1739 44.6794 17.1739 44.412 17.1739C44.1447 17.1739 43.8894 17.1739 43.6464 17.1739C43.4114 17.1682 43.1845 17.1653 42.9658 17.1653L41.9449 15.9195C42.2609 15.9024 42.6012 15.8882 42.9658 15.8768C43.3304 15.8597 43.7152 15.8484 44.1203 15.8427C44.5255 15.837 44.9387 15.8341 45.36 15.8341ZM44.5822 15.9195L43.4033 21.8075H40.7661L41.9449 15.9195H44.5822Z" fill="#F0F0F0"/>
</g>
</g>
<defs>
<filter id="filter0_d_40_1426" x="32.7598" y="10.1552" width="53.6072" height="26.4627" filterUnits="userSpaceOnUse" color-interpolation-filters="sRGB">
<feFlood flood-opacity="0" result="BackgroundImageFix"/>
<feColorMatrix in="SourceAlpha" type="matrix" values="0 0 0 0 0 0 0 0 0 0 0 0 0 0 0 0 0 0 127 0" result="hardAlpha"/>
<feOffset dy="4"/>
<feGaussianBlur stdDeviation="4"/>
<feComposite in2="hardAlpha" operator="out"/>
<feColorMatrix type="matrix" values="0 0 0 0 0 0 0 0 0 0 0 0 0 0 0 0 0 0 0.2 0"/>
<feBlend mode="normal" in2="BackgroundImageFix" result="effect1_dropShadow_40_1426"/>
<feBlend mode="normal" in="SourceGraphic" in2="effect1_dropShadow_40_1426" result="shape"/>
</filter>
<filter id="filter1_d_40_1426" x="36.7661" y="15.8" width="45.5297" height="15.6" filterUnits="userSpaceOnUse" color-interpolation-filters="sRGB">
<feFlood flood-opacity="0" result="BackgroundImageFix"/>
<feColorMatrix in="SourceAlpha" type="matrix" values="0 0 0 0 0 0 0 0 0 0 0 0 0 0 0 0 0 0 127 0" result="hardAlpha"/>
<feOffset dy="4"/>
<feGaussianBlur stdDeviation="2"/>
<feComposite in2="hardAlpha" operator="out"/>
<feColorMatrix type="matrix" values="0 0 0 0 0 0 0 0 0 0 0 0 0 0 0 0 0 0 0.25 0"/>
<feBlend mode="normal" in2="BackgroundImageFix" result="effect1_dropShadow_40_1426"/>
<feBlend mode="normal" in="SourceGraphic" in2="effect1_dropShadow_40_1426" result="shape"/>
</filter>
<filter id="filter2_d_40_1426" x="42.3777" y="0.799999" width="34.739" height="37.6" filterUnits="userSpaceOnUse" color-interpolation-filters="sRGB">
<feFlood flood-opacity="0" result="BackgroundImageFix"/>
<feColorMatrix in="SourceAlpha" type="matrix" values="0 0 0 0 0 0 0 0 0 0 0 0 0 0 0 0 0 0 127 0" result="hardAlpha"/>
<feOffset/>
<feGaussianBlur stdDeviation="7.5"/>
<feComposite in2="hardAlpha" operator="out"/>
<feColorMatrix type="matrix" values="0 0 0 0 0 0 0 0 0 0.960784 0 0 0 0 1 0 0 0 0.4 0"/>
<feBlend mode="normal" in2="BackgroundImageFix" result="effect1_dropShadow_40_1426"/>
<feBlend mode="normal" in="SourceGraphic" in2="effect1_dropShadow_40_1426" result="shape"/>
</filter>
<linearGradient id="paint0_linear_40_1426" x1="71.4294" y1="12.1632" x2="56.2663" y2="37.9467" gradientUnits="userSpaceOnUse">
<stop stop-color="#1FE7FF"/>
<stop offset="1" stop-color="#FF1FE7"/>
</linearGradient>
<linearGradient id="paint1_linear_40_1426" x1="57.2869" y1="17.8981" x2="60.5643" y2="22.4873" gradientUnits="userSpaceOnUse">
<stop stop-color="#FBBF24"/>
<stop offset="1" stop-color="#EA580C" stop-opacity="0.9"/>
</linearGradient>
<clipPath id="clip0_40_1426">
<rect width="40" height="20" fill="white" transform="translate(40 10)"/>
</clipPath>
</defs>
</svg>
