<svg width="240" height="60" viewBox="0 0 240 60" fill="none" xmlns="http://www.w3.org/2000/svg">
<rect width="240" height="60" fill="#0A0A0F"/>
<g clip-path="url(#clip0_40_1415)">
<g filter="url(#filter0_d_40_1415)">
<path d="M175.024 23.002C164.054 22.8613 165.462 35.407 150.07 35.41C134.678 35.4129 143.539 23.0081 129.355 22.868C115.171 22.7279 121.489 35.4824 106.175 35.4184C90.8603 35.3545 98.7509 22.5898 83.686 22.734C68.621 22.8782 82.8015 35.4229 62.2805 35.4268" stroke="url(#paint0_linear_40_1415)" stroke-opacity="0.5" stroke-width="2"/>
</g>
<g filter="url(#filter1_d_40_1415)">
<path d="M164.167 23.7C166.938 23.7 169.174 23.8365 170.876 24.1096C172.577 24.3827 173.732 24.8605 174.339 25.5432C174.971 26.2173 175.057 27.1688 174.595 28.3976C174.254 29.3021 173.756 30.0488 173.1 30.6376C172.468 31.2264 171.641 31.6829 170.621 32.0072C169.6 32.3315 168.348 32.5619 166.865 32.6984C165.407 32.8264 163.693 32.8904 161.724 32.8904C158.832 32.8904 156.547 32.7539 154.87 32.4808C153.217 32.1992 152.123 31.7171 151.588 31.0344C151.054 30.3517 151.017 29.4045 151.479 28.1928C151.844 27.2968 152.342 26.5587 152.974 25.9784C153.606 25.3896 154.42 24.9288 155.417 24.596C156.413 24.2632 157.629 24.0328 159.063 23.9048C160.497 23.7683 162.198 23.7 164.167 23.7ZM164.094 25.7608C163.219 25.7608 162.514 25.8291 161.979 25.9656C161.469 26.1021 161.056 26.3581 160.74 26.7336C160.424 27.1091 160.096 27.6637 159.756 28.3976C159.464 29.0717 159.33 29.5837 159.355 29.9336C159.379 30.2835 159.597 30.5224 160.011 30.6504C160.424 30.7699 161.056 30.8296 161.907 30.8296C162.83 30.8296 163.547 30.7613 164.058 30.6248C164.568 30.4883 164.981 30.2323 165.298 29.8568C165.638 29.4728 165.966 28.9181 166.282 28.1928C166.573 27.5187 166.707 27.0109 166.683 26.6696C166.659 26.3197 166.44 26.0808 166.027 25.9528C165.613 25.8248 164.969 25.7608 164.094 25.7608Z" fill="#F0F0F0"/>
<path d="M153.123 23.8792L142.258 30.0872L134.675 30.0744L128.732 23.8792H136.607L138.539 26.708C138.709 26.964 138.795 27.1944 138.795 27.3992C138.819 27.604 138.819 27.8045 138.795 28.0008H139.341C139.39 27.8216 139.512 27.6211 139.706 27.3992C139.901 27.1688 140.144 26.9469 140.435 26.7336L144.701 23.8792H153.123ZM142.951 28.5128L141.31 32.7112H133.362L135.039 28.5128H142.951Z" fill="#F0F0F0"/>
<g filter="url(#filter2_d_40_1415)">
<path d="M122.498 23.7C123.429 23.7 123.894 23.7 124.264 23.7357C125.337 23.8389 126.14 24.1517 126.322 24.5367C126.385 24.6696 126.336 24.8319 126.24 25.1565L123.947 32.8815C123.715 33.6048 123.028 34.1554 121.886 34.5332C120.745 34.9111 119.29 35.1 117.52 35.1C116.938 35.1 116.274 35.0784 115.529 35.0352C114.783 35.0028 114.073 34.9543 113.398 34.8895C112.401 34.7905 111.985 34.4197 112.18 34.0627L112.805 32.922C112.946 32.6636 113.591 32.4767 114.341 32.4767C115.086 32.4767 115.633 32.4227 115.983 32.3148C116.332 32.2068 116.53 32.0503 116.576 31.8452L118.759 24.8758C118.843 24.608 118.884 24.4741 118.997 24.3636C119.321 24.045 120.083 23.8055 121.021 23.7272C121.347 23.7 121.73 23.7 122.498 23.7Z" fill="url(#paint1_linear_40_1415)"/>
</g>
<path d="M113.312 23.8792L111.161 29.1144C110.797 30.0531 110.177 30.7997 109.302 31.3544C108.451 31.9005 107.212 32.2931 105.583 32.532C103.979 32.7709 101.84 32.8904 99.1659 32.8904C96.614 32.8904 94.5235 32.7624 92.8948 32.5064C91.2906 32.2504 90.1605 31.8408 89.504 31.2776C88.8721 30.7059 88.7265 29.9507 89.0668 29.012L91.1812 23.8792H99.0567L96.942 29.1144C96.7477 29.5581 96.6747 29.908 96.7231 30.164C96.7719 30.4115 97.0028 30.5864 97.4161 30.6888C97.8291 30.7827 98.4733 30.8296 99.3483 30.8296C100.272 30.8296 100.977 30.7784 101.463 30.676C101.973 30.5651 102.35 30.3773 102.593 30.1128C102.861 29.8483 103.104 29.4813 103.322 29.012L105.401 23.8792H113.312Z" fill="#F0F0F0"/>
<path d="M76.0799 23.7512C78.8022 23.7512 81.0141 23.8877 82.7156 24.1608C84.417 24.4253 85.5837 24.8947 86.2157 25.5688C86.872 26.2429 86.957 27.1859 86.4709 28.3976C86.1063 29.2765 85.6323 30.0061 85.049 30.5864C84.4656 31.1667 83.6878 31.6189 82.7156 31.9432C81.7433 32.2675 80.5158 32.4979 79.0331 32.6344C77.5504 32.7709 75.7396 32.8392 73.6006 32.8392C71.3887 32.8392 69.3713 32.8264 67.5483 32.8008C65.7253 32.7752 63.9752 32.7453 62.2981 32.7112L66.0535 30.74C66.8799 30.7741 67.9737 30.7997 69.3348 30.8168C70.696 30.8253 72.0814 30.8296 73.4912 30.8296C74.1232 30.8296 74.6823 30.7955 75.1684 30.7272C75.6545 30.6589 76.0799 30.5309 76.4445 30.3432C76.8334 30.1555 77.1615 29.8909 77.4289 29.5496C77.7206 29.1997 77.9636 28.7475 78.1581 28.1928C78.3525 27.6979 78.4619 27.2925 78.4862 26.9768C78.5348 26.6611 78.4741 26.4136 78.3039 26.2344C78.1581 26.0552 77.8786 25.9315 77.4653 25.8632C77.0764 25.7949 76.5295 25.7608 75.8246 25.7608C74.901 25.7608 74.0381 25.7608 73.236 25.7608C72.4339 25.7608 71.6683 25.7608 70.9391 25.7608C70.2342 25.7523 69.5536 25.748 68.8973 25.748L65.8347 23.8792C66.7826 23.8536 67.8035 23.8323 68.8973 23.8152C69.9911 23.7896 71.1456 23.7725 72.361 23.764C73.5763 23.7555 74.8159 23.7512 76.0799 23.7512ZM73.7465 23.8792L70.2098 32.7112H62.2981L65.8347 23.8792H73.7465Z" fill="#F0F0F0"/>
</g>
</g>
<defs>
<filter id="filter0_d_40_1415" x="54.2803" y="17.7328" width="128.757" height="30.694" filterUnits="userSpaceOnUse" color-interpolation-filters="sRGB">
<feFlood flood-opacity="0" result="BackgroundImageFix"/>
<feColorMatrix in="SourceAlpha" type="matrix" values="0 0 0 0 0 0 0 0 0 0 0 0 0 0 0 0 0 0 127 0" result="hardAlpha"/>
<feOffset dy="4"/>
<feGaussianBlur stdDeviation="4"/>
<feComposite in2="hardAlpha" operator="out"/>
<feColorMatrix type="matrix" values="0 0 0 0 0 0 0 0 0 0 0 0 0 0 0 0 0 0 0.2 0"/>
<feBlend mode="normal" in2="BackgroundImageFix" result="effect1_dropShadow_40_1415"/>
<feBlend mode="normal" in="SourceGraphic" in2="effect1_dropShadow_40_1415" result="shape"/>
</filter>
<filter id="filter1_d_40_1415" x="58.2981" y="23.7" width="120.589" height="19.4" filterUnits="userSpaceOnUse" color-interpolation-filters="sRGB">
<feFlood flood-opacity="0" result="BackgroundImageFix"/>
<feColorMatrix in="SourceAlpha" type="matrix" values="0 0 0 0 0 0 0 0 0 0 0 0 0 0 0 0 0 0 127 0" result="hardAlpha"/>
<feOffset dy="4"/>
<feGaussianBlur stdDeviation="2"/>
<feComposite in2="hardAlpha" operator="out"/>
<feColorMatrix type="matrix" values="0 0 0 0 0 0 0 0 0 0 0 0 0 0 0 0 0 0 0.25 0"/>
<feBlend mode="normal" in2="BackgroundImageFix" result="effect1_dropShadow_40_1415"/>
<feBlend mode="normal" in="SourceGraphic" in2="effect1_dropShadow_40_1415" result="shape"/>
</filter>
<filter id="filter2_d_40_1415" x="97.1332" y="8.7" width="44.2169" height="41.4" filterUnits="userSpaceOnUse" color-interpolation-filters="sRGB">
<feFlood flood-opacity="0" result="BackgroundImageFix"/>
<feColorMatrix in="SourceAlpha" type="matrix" values="0 0 0 0 0 0 0 0 0 0 0 0 0 0 0 0 0 0 127 0" result="hardAlpha"/>
<feOffset/>
<feGaussianBlur stdDeviation="7.5"/>
<feComposite in2="hardAlpha" operator="out"/>
<feColorMatrix type="matrix" values="0 0 0 0 0 0 0 0 0 0.960784 0 0 0 0 1 0 0 0 0.4 0"/>
<feBlend mode="normal" in2="BackgroundImageFix" result="effect1_dropShadow_40_1415"/>
<feBlend mode="normal" in="SourceGraphic" in2="effect1_dropShadow_40_1415" result="shape"/>
</filter>
<linearGradient id="paint0_linear_40_1415" x1="154.288" y1="18.2448" x2="140.201" y2="66.1536" gradientUnits="userSpaceOnUse">
<stop stop-color="#1FE7FF"/>
<stop offset="1" stop-color="#FF1FE7"/>
</linearGradient>
<linearGradient id="paint1_linear_40_1415" x1="111.861" y1="26.8472" x2="115.153" y2="36.0663" gradientUnits="userSpaceOnUse">
<stop stop-color="#FBBF24"/>
<stop offset="1" stop-color="#EA580C" stop-opacity="0.9"/>
</linearGradient>
<clipPath id="clip0_40_1415">
<rect width="120" height="30" fill="white" transform="translate(60 15)"/>
</clipPath>
</defs>
</svg>
