<svg width="512" height="128" viewBox="0 0 512 128" fill="none" xmlns="http://www.w3.org/2000/svg">
<g clip-path="url(#clip0_35_224)">
<g filter="url(#filter0_d_35_224)">
<path d="M373.385 49.071C349.982 48.7709 352.986 75.5349 320.15 75.5413C287.313 75.5475 306.217 49.0839 275.958 48.7851C245.697 48.4863 259.177 75.6958 226.506 75.5593C193.835 75.4229 210.669 48.1916 178.53 48.4992C146.391 48.8067 176.643 75.5689 132.865 75.5772" stroke="url(#paint0_linear_35_224)" stroke-opacity="0.5" stroke-width="2"/>
</g>
<g filter="url(#filter1_d_35_224)">
<path d="M350.223 50.56C356.135 50.56 360.905 50.8513 364.535 51.4338C368.164 52.0163 370.628 53.0358 371.924 54.4922C373.272 55.9302 373.454 57.9601 372.468 60.5815C371.742 62.5111 370.679 64.1041 369.28 65.3602C367.932 66.6163 366.168 67.5902 363.991 68.282C361.813 68.9739 359.142 69.4654 355.979 69.7566C352.868 70.0297 349.212 70.1662 345.012 70.1662C338.841 70.1662 333.967 69.875 330.389 69.2924C326.863 68.6916 324.53 67.6631 323.389 66.2067C322.248 64.7503 322.17 62.7296 323.155 60.1446C323.934 58.2332 324.997 56.6586 326.345 55.4206C327.693 54.1645 329.43 53.1814 331.556 52.4715C333.682 51.7615 336.275 51.27 339.334 50.9969C342.394 50.7056 346.023 50.56 350.223 50.56ZM350.068 54.9564C348.201 54.9564 346.697 55.1021 345.556 55.3933C344.468 55.6845 343.586 56.2306 342.912 57.0317C342.238 57.8327 341.538 59.0159 340.812 60.5815C340.189 62.0196 339.904 63.1119 339.956 63.8583C340.008 64.6048 340.475 65.1145 341.356 65.3875C342.238 65.6425 343.586 65.7698 345.401 65.7698C347.371 65.7698 348.901 65.6241 349.99 65.3329C351.079 65.0417 351.96 64.4956 352.635 63.6945C353.36 62.8753 354.061 61.6919 354.735 60.1446C355.357 58.7066 355.642 57.6233 355.59 56.8951C355.538 56.1487 355.071 55.639 354.19 55.366C353.309 55.0929 351.934 54.9564 350.068 54.9564Z" fill="#F0F0F0"/>
<path d="M326.663 50.9423L303.484 64.186L287.306 64.1587L274.628 50.9423H291.428L295.55 56.9771C295.913 57.5232 296.095 58.0147 296.095 58.4516C296.147 58.8885 296.147 59.3163 296.095 59.735H297.262C297.366 59.3527 297.625 58.925 298.04 58.4516C298.455 57.9601 298.973 57.4867 299.595 57.0317L308.696 50.9423H326.663ZM304.962 60.8273L301.462 69.7839H284.506L288.084 60.8273H304.962Z" fill="#F0F0F0"/>
<g filter="url(#filter2_d_35_224)">
<path d="M261.329 50.56C263.315 50.56 264.307 50.56 265.097 50.6361C267.385 50.8563 269.099 51.5235 269.487 52.3449C269.62 52.6284 269.518 52.9747 269.312 53.6672L264.421 70.1472C263.924 71.6902 262.459 72.8649 260.024 73.6708C257.59 74.477 254.485 74.88 250.709 74.88C249.467 74.88 248.051 74.8339 246.461 74.7418C244.871 74.6726 243.356 74.5692 241.915 74.4309C239.788 74.2197 238.901 73.4287 239.317 72.6671L240.65 70.2336C240.951 69.6823 242.327 69.2836 243.927 69.2836C245.517 69.2836 246.684 69.1684 247.43 68.9382C248.175 68.7078 248.597 68.374 248.696 67.9364L253.352 53.0683C253.531 52.4971 253.62 52.2115 253.86 51.9756C254.552 51.296 256.177 50.7852 258.178 50.618C258.873 50.56 259.692 50.56 261.329 50.56Z" fill="url(#paint1_linear_35_224)"/>
</g>
<path d="M241.733 50.9423L237.144 62.1107C236.366 64.1133 235.044 65.706 233.177 66.8894C231.363 68.0544 228.718 68.8919 225.244 69.4016C221.821 69.9113 217.258 70.1662 211.554 70.1662C206.11 70.1662 201.65 69.8931 198.176 69.347C194.753 68.8009 192.342 67.927 190.942 66.7255C189.594 65.5059 189.283 63.8948 190.009 61.8923L194.52 50.9423H211.321L206.81 62.1107C206.395 63.0573 206.239 63.8037 206.343 64.3499C206.447 64.8779 206.939 65.251 207.821 65.4694C208.702 65.6698 210.076 65.7698 211.943 65.7698C213.913 65.7698 215.417 65.6606 216.454 65.4421C217.543 65.2055 218.347 64.8049 218.865 64.2406C219.436 63.6764 219.954 62.8934 220.421 61.8923L224.855 50.9423H241.733Z" fill="#F0F0F0"/>
<path d="M162.304 50.6692C168.111 50.6692 172.83 50.9605 176.46 51.543C180.09 52.1074 182.579 53.1086 183.927 54.5468C185.327 55.9849 185.508 57.9966 184.471 60.5815C183.693 62.4565 182.682 64.013 181.438 65.251C180.193 66.489 178.534 67.4537 176.46 68.1455C174.386 68.8373 171.767 69.3289 168.604 69.6201C165.441 69.9113 161.578 70.057 157.015 70.057C152.296 70.057 147.992 70.0297 144.103 69.975C140.214 69.9204 136.48 69.8566 132.903 69.7839L140.914 65.5787C142.677 65.6514 145.01 65.706 147.914 65.7425C150.818 65.7606 153.774 65.7698 156.781 65.7698C158.129 65.7698 159.322 65.6971 160.359 65.5514C161.396 65.4057 162.304 65.1326 163.082 64.7322C163.911 64.3317 164.611 63.7673 165.182 63.0391C165.804 62.2927 166.322 61.328 166.737 60.1446C167.152 59.0889 167.385 58.224 167.437 57.5505C167.541 56.877 167.411 56.349 167.048 55.9667C166.737 55.5844 166.141 55.3205 165.259 55.1748C164.43 55.0291 163.263 54.9564 161.759 54.9564C159.789 54.9564 157.948 54.9564 156.237 54.9564C154.526 54.9564 152.892 54.9564 151.337 54.9564C149.833 54.9382 148.381 54.9291 146.981 54.9291L140.447 50.9423C142.47 50.8877 144.647 50.8422 146.981 50.8058C149.314 50.7511 151.777 50.7147 154.37 50.6965C156.963 50.6783 159.607 50.6692 162.304 50.6692ZM157.326 50.9423L149.781 69.7839H132.903L140.447 50.9423H157.326Z" fill="#F0F0F0"/>
</g>
</g>
<defs>
<filter id="filter0_d_35_224" x="124.865" y="43.4966" width="256.533" height="45.0806" filterUnits="userSpaceOnUse" color-interpolation-filters="sRGB">
<feFlood flood-opacity="0" result="BackgroundImageFix"/>
<feColorMatrix in="SourceAlpha" type="matrix" values="0 0 0 0 0 0 0 0 0 0 0 0 0 0 0 0 0 0 127 0" result="hardAlpha"/>
<feOffset dy="4"/>
<feGaussianBlur stdDeviation="4"/>
<feComposite in2="hardAlpha" operator="out"/>
<feColorMatrix type="matrix" values="0 0 0 0 0 0 0 0 0 0 0 0 0 0 0 0 0 0 0.2 0"/>
<feBlend mode="normal" in2="BackgroundImageFix" result="effect1_dropShadow_35_224"/>
<feBlend mode="normal" in="SourceGraphic" in2="effect1_dropShadow_35_224" result="shape"/>
</filter>
<filter id="filter1_d_35_224" x="128.903" y="50.56" width="248.19" height="32.32" filterUnits="userSpaceOnUse" color-interpolation-filters="sRGB">
<feFlood flood-opacity="0" result="BackgroundImageFix"/>
<feColorMatrix in="SourceAlpha" type="matrix" values="0 0 0 0 0 0 0 0 0 0 0 0 0 0 0 0 0 0 127 0" result="hardAlpha"/>
<feOffset dy="4"/>
<feGaussianBlur stdDeviation="2"/>
<feComposite in2="hardAlpha" operator="out"/>
<feColorMatrix type="matrix" values="0 0 0 0 0 0 0 0 0 0 0 0 0 0 0 0 0 0 0.25 0"/>
<feBlend mode="normal" in2="BackgroundImageFix" result="effect1_dropShadow_35_224"/>
<feBlend mode="normal" in="SourceGraphic" in2="effect1_dropShadow_35_224" result="shape"/>
</filter>
<filter id="filter2_d_35_224" x="224.217" y="35.56" width="60.3294" height="54.32" filterUnits="userSpaceOnUse" color-interpolation-filters="sRGB">
<feFlood flood-opacity="0" result="BackgroundImageFix"/>
<feColorMatrix in="SourceAlpha" type="matrix" values="0 0 0 0 0 0 0 0 0 0 0 0 0 0 0 0 0 0 127 0" result="hardAlpha"/>
<feOffset/>
<feGaussianBlur stdDeviation="7.5"/>
<feComposite in2="hardAlpha" operator="out"/>
<feColorMatrix type="matrix" values="0 0 0 0 0 0 0 0 0 0.960784 0 0 0 0 1 0 0 0 0.4 0"/>
<feBlend mode="normal" in2="BackgroundImageFix" result="effect1_dropShadow_35_224"/>
<feBlend mode="normal" in="SourceGraphic" in2="effect1_dropShadow_35_224" result="shape"/>
</filter>
<linearGradient id="paint0_linear_35_224" x1="329.149" y1="38.9223" x2="299.095" y2="141.128" gradientUnits="userSpaceOnUse">
<stop stop-color="#1FE7FF"/>
<stop offset="1" stop-color="#FF1FE7"/>
</linearGradient>
<linearGradient id="paint1_linear_35_224" x1="238.636" y1="57.274" x2="245.659" y2="76.9415" gradientUnits="userSpaceOnUse">
<stop stop-color="#FBBF24"/>
<stop offset="1" stop-color="#EA580C" stop-opacity="0.9"/>
</linearGradient>
<clipPath id="clip0_35_224">
<rect width="256" height="64" fill="white" transform="translate(128 32)"/>
</clipPath>
</defs>
</svg>
