<?xml version="1.0" standalone="no"?>
<!DOCTYPE svg PUBLIC "-//W3C//DTD SVG 20010904//EN"
 "http://www.w3.org/TR/2001/REC-SVG-20010904/DTD/svg10.dtd">
<svg version="1.0" xmlns="http://www.w3.org/2000/svg"
 width="1024.000000pt" height="1024.000000pt" viewBox="0 0 1024.000000 1024.000000"
 preserveAspectRatio="xMidYMid meet">

<g transform="translate(0.000000,1024.000000) scale(0.100000,-0.100000)"
fill="#000000" stroke="none">
<path d="M0 5120 l0 -5120 5120 0 5120 0 0 5120 0 5120 -5120 0 -5120 0 0
-5120z m5237 3633 c19 -9 37 -22 40 -30 3 -7 9 -10 14 -7 8 4 13 -16 10 -38 0
-4 8 -26 19 -50 46 -102 1 -215 -112 -280 l-57 -33 -1 -668 c0 -592 -2 -672
-16 -695 -30 -51 -105 -89 -117 -59 -8 22 -11 1686 -3 1732 12 67 27 95 65
121 43 29 106 32 158 7z m688 -172 c3 -5 1 -12 -5 -16 -5 -3 -10 1 -10 9 0 18
6 21 15 7z m-1295 -141 c43 -43 11 -120 -49 -120 -32 0 -71 39 -71 70 0 10 9
29 21 44 25 32 70 35 99 6z m1062 3 c24 -22 24 -77 -2 -103 -27 -27 -66 -25
-95 5 -29 28 -32 61 -9 93 19 27 78 30 106 5z m698 -23 c0 -5 -4 -10 -10 -10
-5 0 -10 5 -10 10 0 6 5 10 10 10 6 0 10 -4 10 -10z m-2106 -41 c37 -29 37
-89 0 -118 -15 -12 -37 -21 -50 -21 -32 0 -73 39 -80 77 -5 25 -1 37 19 57 32
32 74 34 111 5z m1845 -49 c190 -66 343 -131 501 -211 196 -99 230 -122 230
-157 0 -17 -9 -37 -21 -48 -20 -18 -21 -18 -72 10 -126 70 -322 169 -389 197
-128 53 -300 116 -383 139 -95 26 -119 44 -110 80 16 63 37 62 244 -10z
m-1234 20 c3 -5 1 -10 -4 -10 -6 0 -11 5 -11 10 0 6 2 10 4 10 3 0 8 -4 11
-10z m-1205 -14 c0 -11 -19 -15 -25 -6 -3 5 1 10 9 10 9 0 16 -2 16 -4z m1921
-116 c346 -62 736 -201 1053 -377 447 -247 936 -695 1220 -1117 110 -165 304
-568 314 -653 4 -42 3 -43 -33 -59 -20 -8 -43 -13 -49 -11 -7 3 -34 58 -61
124 -159 393 -405 752 -741 1085 -175 173 -266 250 -429 363 -169 116 -235
155 -424 250 -160 80 -362 158 -544 209 -107 31 -295 71 -302 65 -2 -3 5 -35
16 -72 19 -63 22 -67 49 -67 87 0 462 -119 648 -206 608 -283 1075 -712 1331
-1222 141 -281 229 -586 261 -905 17 -162 8 -657 -14 -792 -33 -199 -113 -511
-131 -509 -6 1 -26 4 -45 8 -33 5 -33 5 8 -10 41 -15 61 -42 22 -29 -16 5 -20
2 -19 -17 0 -13 3 -17 6 -10 8 20 21 13 16 -9 -5 -17 -11 -20 -37 -15 -31 6
-31 6 -8 -9 26 -19 29 -37 5 -28 -16 6 -16 5 -4 -10 12 -15 11 -17 -2 -17 -11
0 -14 -6 -11 -15 10 -24 -36 -135 -63 -152 -22 -14 -35 -41 -13 -28 6 4 7 -1
3 -11 -4 -11 -8 -13 -11 -6 -2 8 -8 8 -22 0 -10 -6 -16 -17 -14 -23 3 -6 -3
-19 -12 -30 -14 -18 -15 -18 -10 -2 4 11 2 16 -5 12 -5 -4 -7 -16 -3 -27 4
-14 2 -18 -5 -14 -6 4 -11 2 -11 -5 0 -6 -8 -9 -20 -6 -19 5 -21 3 -69 -75
-19 -32 -20 -37 -5 -31 12 4 15 2 12 -8 -3 -8 -12 -13 -21 -13 -10 1 -13 -4
-10 -14 5 -11 3 -13 -8 -7 -9 6 -7 -1 5 -20 18 -28 18 -29 1 -15 -17 14 -18
13 -11 -4 7 -20 7 -20 -15 0 l-22 19 17 -26 c15 -24 15 -29 1 -55 -8 -16 -15
-23 -15 -16 0 7 4 21 9 30 6 11 4 21 -4 29 -10 9 -20 1 -47 -40 -18 -29 -33
-64 -33 -79 1 -15 -2 -25 -6 -22 -4 2 -17 -12 -28 -32 -12 -20 -24 -34 -27
-31 -3 3 5 21 19 39 32 44 44 70 17 38 -11 -14 -39 -46 -60 -72 -23 -27 -38
-53 -34 -61 3 -8 1 -18 -5 -22 -7 -4 -8 1 -4 12 3 10 -27 -13 -67 -52 -115
-110 -110 -106 -110 -76 0 11 45 68 101 128 237 255 426 558 534 858 102 282
144 482 172 820 26 312 3 628 -67 905 -124 494 -373 896 -761 1231 -85 74
-278 214 -354 259 -22 12 -82 47 -134 77 -228 133 -561 259 -781 297 l-35 6 3
-178 c4 -161 2 -187 -22 -291 -14 -62 -23 -117 -21 -121 3 -4 21 -11 41 -15
20 -3 84 -24 143 -45 131 -49 152 -71 112 -121 l-19 -24 -129 42 c-198 64
-186 64 -222 -13 -120 -256 -405 -534 -880 -858 -347 -236 -518 -392 -689
-629 -142 -196 -229 -404 -269 -637 -13 -80 -7 -335 10 -420 64 -315 237 -586
502 -783 113 -84 335 -190 473 -226 20 -5 56 -15 80 -21 l42 -11 0 -50 0 -51
-32 5 c-33 5 -49 9 -78 19 -8 3 -42 12 -75 21 -160 41 -309 107 -461 202 -50
32 -134 108 -134 122 0 7 -3 12 -7 11 -20 -4 -65 29 -112 83 l-52 59 33 0 c27
1 30 2 15 11 -9 6 -26 8 -36 4 -13 -4 -27 2 -40 16 -25 27 -26 38 -6 45 8 4
15 11 15 17 0 7 -4 7 -12 -1 -7 -7 -17 -12 -24 -12 -15 0 -56 68 -49 81 4 5 0
9 -8 9 -8 0 -33 42 -60 103 -55 120 -58 132 -34 131 17 -2 22 7 10 19 -3 4
-12 2 -19 -4 -14 -11 -22 -1 -28 33 -1 7 -4 18 -8 23 -3 6 -9 29 -13 53 -6 38
-5 42 14 42 12 0 21 4 21 9 0 4 -11 6 -25 3 -22 -4 -25 -1 -26 27 -1 17 -2 37
-3 44 -1 6 4 12 11 12 6 0 15 4 20 8 4 5 -3 7 -17 5 -17 -2 -26 2 -28 15 -2
12 3 17 20 18 22 2 22 2 2 6 -18 3 -22 13 -26 61 -11 131 11 358 48 482 88
300 266 574 514 793 136 120 199 168 405 307 345 231 599 436 727 587 118 139
221 329 271 501 20 69 22 98 22 292 -1 236 -13 315 -76 483 -16 44 -27 83 -23
88 7 12 15 12 145 -11z m-947 -26 c12 -31 6 -73 -11 -82 -10 -5 -53 -15 -96
-21 -143 -23 -380 -88 -547 -150 -579 -217 -1098 -609 -1455 -1099 -135 -186
-290 -470 -375 -687 -24 -60 -48 -116 -53 -122 -5 -7 -24 -13 -43 -13 -41 0
-58 27 -48 73 13 62 106 284 171 407 159 302 301 491 581 774 322 325 702 578
1122 744 205 81 314 112 655 185 49 11 93 7 99 -9z m2033 -26 c-3 -8 -6 -5 -6
6 -1 11 2 17 5 13 3 -3 4 -12 1 -19z m303 12 c0 -5 -4 -10 -10 -10 -5 0 -10 5
-10 10 0 6 5 10 10 10 6 0 10 -4 10 -10z m-3259 -18 c46 -38 16 -122 -45 -122
-78 0 -91 105 -16 133 26 10 37 7 61 -11z m-234 -141 c17 -22 16 -28 -5 -49
-26 -26 -186 -112 -209 -112 -27 0 -43 19 -43 50 0 35 18 50 120 99 86 42 112
44 137 12z m1157 -67 c10 -27 7 -71 -6 -82 -7 -5 -38 -13 -68 -17 -71 -10
-269 -58 -392 -96 -493 -152 -1049 -529 -1369 -930 -280 -352 -448 -741 -520
-1206 -29 -192 -37 -551 -15 -760 51 -500 245 -944 613 -1401 63 -78 113 -148
111 -156 -5 -22 -203 209 -296 346 -22 31 -37 45 -47 42 -8 -4 -15 -1 -15 6 0
6 5 8 11 4 7 -4 10 -1 7 7 -3 8 -10 14 -15 14 -6 0 -15 4 -20 9 -5 5 -2 6 6 1
9 -5 12 -3 9 6 -3 8 -11 13 -17 11 -7 -1 -10 2 -6 8 9 14 -14 52 -27 44 -7 -4
-8 -3 -4 4 4 7 -4 31 -18 54 -14 24 -26 38 -26 33 0 -6 8 -22 17 -35 17 -25
17 -25 -4 -7 -12 10 -27 32 -33 48 -7 16 -16 26 -21 23 -5 -3 -9 2 -9 10 0 9
-5 16 -11 16 -5 0 -7 -4 -4 -10 3 -6 -1 -7 -10 -4 -13 6 -12 9 7 23 13 9 26
15 30 13 4 -1 0 14 -9 33 -9 19 -18 33 -21 31 -2 -2 2 -14 8 -26 14 -27 13
-28 -31 -33 -32 -3 -36 -1 -35 17 1 13 8 21 18 20 9 -1 19 5 22 12 3 9 -2 14
-13 14 -11 0 -21 -5 -23 -12 -7 -21 -36 0 -43 31 -4 17 -11 31 -16 31 -21 0
-6 18 24 28 l32 11 -37 -3 -37 -4 -40 102 c-71 184 -106 324 -138 546 -22 158
-25 605 -4 750 64 462 199 837 419 1165 211 314 421 525 764 771 140 100 212
143 373 224 294 146 519 223 802 274 104 19 120 19 127 0z m2387 -82 c68 -44
212 -151 227 -170 18 -24 15 -56 -8 -77 -26 -23 -43 -16 -141 61 -41 31 -97
71 -126 90 -63 40 -74 66 -42 100 29 30 35 30 90 -4z m-4029 -129 c28 -25 24
-77 -8 -102 -35 -28 -59 -26 -91 5 -20 20 -24 31 -19 56 3 17 11 37 17 45 16
18 79 16 101 -4z m1643 -47 c13 -67 12 -68 -130 -97 -227 -46 -510 -146 -695
-246 -489 -265 -812 -569 -1040 -978 -46 -82 -60 -101 -82 -103 -37 -4 -61 24
-54 61 10 48 113 218 215 354 338 451 896 825 1449 973 77 20 296 68 319 69 7
1 15 -14 18 -33z m1390 -84 c305 -112 591 -278 841 -488 122 -102 149 -141
120 -173 -35 -38 -53 -33 -130 39 -184 171 -526 386 -761 481 -44 17 -136 50
-205 73 -116 38 -125 43 -128 68 -2 15 2 37 8 49 17 31 61 22 255 -49z m-1125
-57 c0 -8 -2 -15 -4 -15 -2 0 -6 7 -10 15 -3 8 -1 15 4 15 6 0 10 -7 10 -15z
m-2166 -61 c22 -21 20 -50 -4 -74 -35 -35 -100 -17 -100 28 0 52 69 82 104 46z
m1818 -70 c10 -21 9 -31 -2 -51 -13 -22 -29 -29 -100 -44 -47 -10 -94 -21
-105 -24 -46 -14 -78 56 -42 93 20 19 138 51 195 51 36 1 44 -3 54 -25z m1444
-49 c244 -96 527 -264 709 -420 50 -42 114 -97 143 -122 64 -55 79 -86 57
-119 -28 -42 -58 -31 -149 55 -134 125 -334 270 -507 366 -92 51 -303 147
-388 176 -30 10 -60 24 -67 30 -17 14 -18 43 -3 71 15 29 59 21 205 -37z
m1634 25 c22 -12 42 -64 33 -88 -12 -34 -36 -52 -70 -52 -44 0 -73 30 -73 75
0 60 57 94 110 65z m-5046 -66 c34 -34 6 -94 -44 -94 -33 0 -50 17 -50 51 0
34 24 59 55 59 13 0 31 -7 39 -16z m1476 -84 c16 -38 3 -55 -57 -81 -87 -37
-327 -183 -380 -232 -18 -16 -23 -31 -23 -72 0 -156 -188 -208 -246 -69 -18
44 -18 68 3 111 20 43 66 73 111 73 24 0 52 15 110 59 153 116 380 241 438
241 26 0 34 -6 44 -30z m-1713 -128 c21 -13 34 -61 23 -82 -12 -23 -41 -40
-68 -40 -48 0 -76 88 -37 116 20 15 63 18 82 6z m5563 -12 c56 -56 -16 -148
-76 -97 -34 29 -35 74 -4 99 29 23 55 23 80 -2z m-3276 -46 c12 -31 6 -73 -11
-83 -10 -5 -49 -17 -86 -26 -92 -23 -288 -103 -405 -166 -523 -279 -918 -791
-1023 -1324 -16 -80 -39 -265 -39 -310 0 -72 -48 -108 -92 -68 -23 20 -24 79
-3 240 47 368 162 643 404 966 73 97 257 283 376 379 174 140 433 278 670 358
160 53 199 60 209 34z m1118 -100 c128 -46 332 -148 356 -179 27 -34 28 -49 1
-76 -24 -24 -36 -21 -132 34 -40 22 -129 64 -200 93 -70 29 -134 57 -142 64
-29 24 -10 90 25 90 10 0 52 -12 92 -26z m607 -42 c220 -138 496 -420 650
-664 151 -240 235 -465 276 -736 27 -177 17 -242 -37 -242 -42 0 -55 27 -68
140 -40 360 -177 685 -410 974 -142 176 -302 324 -470 436 -36 23 -75 52 -87
63 -25 22 -30 56 -11 75 24 24 66 11 157 -46z m-4127 -29 c26 -23 23 -69 -7
-98 -13 -14 -31 -25 -40 -25 -25 0 -65 46 -65 75 0 54 71 85 112 48z m5808 -3
c46 -46 -3 -132 -67 -116 -26 7 -55 59 -45 85 18 52 76 67 112 31z m-3245
-151 c9 -52 0 -60 -93 -88 -186 -55 -460 -198 -622 -324 -240 -187 -407 -388
-530 -642 -76 -155 -126 -302 -152 -445 -29 -161 -31 -489 -4 -639 20 -113 17
-123 -34 -136 -69 -17 -94 107 -94 460 0 222 2 262 22 353 78 359 239 665 482
916 179 185 343 305 578 424 127 65 380 162 424 162 11 0 18 -12 23 -41z
m2408 -87 c9 -8 17 -26 17 -40 0 -30 -36 -72 -60 -72 -30 0 -70 39 -70 69 0
64 62 88 113 43z m-5107 -17 c15 -23 15 -27 0 -50 -38 -57 -116 -12 -88 50 9
19 19 25 42 25 21 0 34 -8 46 -25z m3470 4 c199 -61 446 -206 598 -350 73 -69
86 -86 86 -113 0 -18 -5 -37 -12 -44 -26 -26 -57 -12 -135 61 -158 147 -376
280 -563 342 -90 30 -109 50 -91 98 13 33 27 34 117 6z m2560 10 c3 -6 0 -18
-9 -26 -18 -18 -37 -9 -37 18 0 21 34 27 46 8z m-1904 -106 c94 -77 283 -262
339 -333 74 -93 174 -254 194 -311 13 -37 13 -41 -5 -59 -44 -44 -69 -24 -153
120 -93 162 -231 320 -395 454 -99 81 -110 98 -87 132 21 33 64 32 107 -3z
m1980 -45 c7 -19 -2 -38 -18 -38 -8 0 -14 8 -14 18 0 30 23 44 32 20z m-4982
-68 c29 -29 26 -74 -6 -99 -36 -28 -68 -26 -93 5 -27 35 -26 59 4 89 29 30 68
32 95 5z m-1282 -86 c44 -31 17 -104 -39 -104 -28 0 -59 30 -59 58 0 17 45 62
62 62 8 0 24 -7 36 -16z m6384 -11 c35 -31 21 -72 -30 -88 -48 -14 -81 48 -45
87 20 22 51 23 75 1z m-2877 -30 c125 -39 243 -94 340 -157 366 -238 610 -588
670 -960 15 -93 19 -392 6 -530 -6 -66 -7 -70 -35 -77 -16 -5 -37 -4 -46 1
-16 9 -17 26 -13 197 9 297 -25 469 -136 698 -67 137 -157 261 -277 380 -164
163 -336 273 -542 345 -115 41 -132 57 -118 114 8 32 15 31 151 -11z m-320
-250 c4 -148 5 -345 1 -439 l-6 -171 73 -12 c186 -33 342 -129 469 -290 97
-123 134 -225 143 -396 5 -113 -24 -276 -49 -271 -6 2 -8 1 -3 -1 10 -7 9 -41
-3 -48 -5 -3 -10 -2 -10 2 0 5 -9 9 -20 9 -26 0 -26 -12 1 -19 17 -5 19 -9 9
-27 -16 -30 -55 -46 -75 -30 -22 18 -18 29 10 26 13 -2 22 0 20 4 -3 4 -21 10
-40 12 -26 3 -34 1 -30 -9 17 -41 17 -48 0 -28 -29 36 -29 64 -1 124 93 200
44 445 -124 611 -97 97 -201 153 -342 184 l-28 6 0 -362 c-1 -200 -2 -468 -3
-596 l-1 -234 -33 4 c-21 3 -34 -1 -38 -10 -3 -9 1 -12 15 -7 38 12 55 -2 56
-45 1 -33 -2 -40 -17 -40 -11 0 -19 6 -19 13 0 9 -2 9 -8 0 -4 -6 -25 -10 -47
-10 l-40 2 -3 66 -3 66 56 -1 c70 -1 73 18 3 22 l-53 3 -3 557 c-2 306 -7 560
-10 564 -11 10 -140 -28 -211 -63 -101 -51 -210 -163 -261 -270 -22 -46 -44
-108 -50 -138 -22 -118 -5 -253 45 -351 15 -29 21 -51 15 -55 -6 -3 -10 -1
-10 4 0 6 -4 11 -10 11 -5 0 -7 -13 -4 -29 5 -23 2 -32 -15 -41 -12 -6 -27 -9
-34 -6 -7 2 -5 5 4 5 16 1 29 20 29 42 0 5 -14 9 -31 9 -27 0 -30 -2 -19 -15
10 -12 9 -15 -5 -15 -11 0 -15 -5 -11 -15 4 -12 2 -13 -14 -3 -13 8 -16 16
-10 22 16 16 12 26 -10 26 -11 0 -20 7 -20 15 0 11 11 15 40 15 31 0 38 3 34
15 -4 8 -11 12 -17 8 -5 -3 -24 -8 -42 -10 -29 -3 -33 0 -43 36 -16 50 -15 53
6 49 9 -1 18 2 19 7 1 6 -9 9 -22 7 -14 -2 -25 -2 -25 0 0 2 -3 59 -6 128 -5
97 -2 140 10 194 58 247 259 465 498 541 42 13 99 27 127 31 l51 7 0 391 c0
355 2 393 18 413 21 26 90 73 107 73 10 0 15 -65 20 -267z m2299 185 c38 -59
127 -370 160 -558 43 -249 46 -704 5 -828 -13 -39 -47 -56 -84 -42 -29 11 -31
37 -15 148 16 111 18 208 9 384 -15 294 -54 480 -154 731 -25 63 -45 123 -45
133 0 52 95 77 124 32z m-1040 -180 c34 -49 5 -118 -49 -118 -54 0 -83 69 -49
118 10 15 25 22 49 22 24 0 39 -7 49 -22z m-4546 0 c7 -7 12 -24 12 -38 0 -53
-57 -69 -86 -25 -15 23 -15 27 0 50 18 27 54 33 74 13z m6576 -10 c26 -43 -31
-99 -70 -68 -17 15 -18 62 -2 78 17 17 58 11 72 -10z m-5471 -102 c23 -18 22
-37 -9 -131 -31 -97 -48 -125 -75 -125 -40 0 -59 19 -59 57 0 48 39 168 62
193 22 23 55 25 81 6z m2515 -77 c214 -84 419 -240 557 -424 96 -129 174 -319
199 -486 19 -126 21 -259 5 -259 -8 0 -8 -4 0 -14 9 -11 8 -18 -5 -31 -13 -12
-14 -19 -5 -24 15 -10 -15 -161 -35 -177 -8 -6 -12 -18 -9 -27 4 -8 -12 -53
-34 -101 -33 -71 -43 -85 -58 -79 -15 5 -16 3 -5 -8 18 -19 15 -29 -10 -30
-13 0 -18 -3 -12 -5 18 -7 4 -44 -16 -44 -13 0 -17 -6 -13 -20 3 -11 0 -20 -6
-20 -6 0 -11 -7 -11 -15 0 -8 -4 -15 -8 -15 -4 0 -16 -14 -26 -32 l-19 -31
-19 23 c-10 12 -22 20 -26 16 -4 -4 1 -12 11 -17 9 -6 17 -16 17 -23 0 -18
-109 -118 -121 -111 -5 4 -9 -1 -9 -10 0 -8 -8 -19 -17 -22 -10 -4 -27 -15
-38 -26 -35 -32 -84 -59 -96 -51 -8 4 -9 3 -5 -4 14 -24 -293 -142 -332 -127
-9 3 -12 21 -10 62 l3 58 90 30 c167 57 271 123 401 257 121 125 174 207 227
353 77 217 78 433 1 669 -56 172 -132 294 -268 424 -104 100 -205 167 -323
215 -150 62 -152 63 -138 134 6 35 7 35 46 29 21 -3 74 -20 117 -37z m-658
-23 l0 -54 -52 -18 c-157 -51 -360 -182 -456 -294 -142 -167 -222 -322 -258
-508 -17 -83 -27 -329 -15 -336 4 -3 8 -21 9 -41 2 -49 47 -175 98 -275 114
-222 338 -414 579 -495 l90 -31 3 -57 c3 -54 2 -57 -20 -56 -13 0 -50 8 -83
18 -44 12 -60 21 -59 34 1 13 -2 15 -18 6 -11 -6 -18 -7 -15 -2 3 5 -8 18 -25
28 -26 15 -30 16 -25 3 7 -19 -107 35 -189 88 -56 36 -173 138 -216 188 -15
17 -37 41 -49 52 -12 12 -18 27 -15 33 4 6 1 11 -6 11 -7 0 -19 9 -26 21 -11
17 -11 23 0 36 11 14 10 15 -10 9 -16 -6 -24 -3 -29 11 -3 10 -12 25 -18 33
-10 13 -26 57 -29 82 -1 3 -4 10 -8 14 -5 4 -8 18 -8 31 0 13 -4 23 -8 23 -27
0 -69 177 -78 330 -12 203 54 462 160 623 158 240 398 435 646 523 36 13 80
23 98 24 l32 0 0 -54z m-2746 -25 c64 -56 23 -161 -63 -161 -42 0 -91 44 -91
81 0 88 91 135 154 80z m6191 -2 c37 -33 44 -63 24 -102 -46 -90 -179 -68
-179 30 0 93 86 132 155 72z m-6456 -3 c28 -29 22 -77 -12 -101 -30 -21 -44
-19 -72 10 -30 30 -31 54 -4 89 26 33 59 33 88 2z m6686 -1 c28 -27 29 -33 16
-68 -6 -16 -23 -29 -47 -37 -35 -12 -39 -11 -56 10 -31 38 -19 98 22 113 29
10 41 7 65 -18z m-1508 -96 c34 -13 43 -25 43 -66 0 -45 -9 -62 -42 -79 -53
-27 -108 6 -108 66 0 39 13 61 45 78 25 14 28 14 62 1z m-299 -39 c24 -22 29
-68 12 -100 -5 -10 -26 -24 -45 -30 -30 -10 -40 -9 -61 5 -68 44 -40 144 42
145 17 0 40 -9 52 -20z m-4064 -52 c7 -12 5 -41 -8 -105 -23 -111 -36 -133
-81 -133 -38 0 -55 20 -55 65 0 45 31 165 47 181 20 20 82 15 97 -8z m2216 -8
c0 -5 -4 -10 -10 -10 -5 0 -10 5 -10 10 0 6 5 10 10 10 6 0 10 -4 10 -10z
m-3095 -60 c8 -13 -13 -40 -31 -40 -8 0 -14 10 -14 25 0 18 5 25 19 25 11 0
23 -5 26 -10z m1116 -9 c22 -18 22 -20 10 -97 -7 -43 -17 -139 -24 -211 -10
-123 -13 -133 -32 -134 -20 0 -20 0 1 -9 19 -8 22 -16 22 -90 1 -67 -2 -81
-14 -76 -8 3 -14 1 -14 -4 0 -6 7 -10 15 -10 8 0 15 -6 15 -13 0 -43 33 -281
49 -354 30 -136 87 -296 157 -439 35 -73 64 -138 64 -146 0 -8 -11 -20 -24
-28 -26 -14 -61 -7 -51 10 3 5 2 10 -4 10 -6 0 -16 10 -22 23 -12 21 -11 22 8
4 18 -16 21 -16 27 -2 3 9 2 13 -4 10 -5 -3 -16 10 -24 30 -9 20 -20 34 -25
31 -5 -4 -13 -1 -17 5 -4 8 -3 9 4 5 7 -4 12 -2 12 3 0 6 -5 11 -11 11 -5 0
-15 14 -20 30 -6 17 -15 30 -21 30 -5 0 -7 3 -5 8 8 12 -12 54 -23 47 -6 -4
-7 1 -3 11 4 12 3 15 -5 10 -7 -4 -12 -1 -12 8 0 8 -5 16 -11 18 -6 2 -12 19
-13 38 -2 19 -17 69 -34 110 -76 188 -113 447 -107 745 5 219 32 390 66 418
27 22 41 22 70 -2z m5653 10 c10 -16 -5 -41 -25 -41 -14 0 -19 7 -19 25 0 18
5 25 19 25 11 0 22 -4 25 -9z m-3749 -31 c-3 -5 -11 -10 -16 -10 -6 0 -7 5 -4
10 3 6 11 10 16 10 6 0 7 -4 4 -10z m-2781 -61 c13 -7 30 -24 36 -38 29 -71
-57 -134 -110 -81 -38 38 -21 104 30 123 8 3 16 6 17 6 1 1 13 -4 27 -10z
m6299 0 c29 -16 37 -28 37 -63 0 -34 -34 -76 -62 -76 -75 0 -101 106 -35 138
29 14 34 14 60 1z m-1242 -96 c9 -26 13 -103 13 -243 1 -219 -16 -373 -42
-402 -18 -21 -51 -23 -77 -4 -17 12 -18 19 -5 137 15 134 18 370 6 460 -8 67
6 89 59 89 30 0 35 -4 46 -37z m-2581 7 c0 -5 -4 -10 -10 -10 -5 0 -10 5 -10
10 0 6 5 10 10 10 6 0 10 -4 10 -10z m-2726 -36 c10 -25 7 -52 -6 -60 -7 -5
-8 -3 -3 6 9 14 -11 30 -38 30 -14 0 -17 -5 -12 -21 5 -15 4 -19 -4 -15 -15 9
-14 49 1 64 17 17 55 15 62 -4z m6806 0 c20 -24 1 -69 -29 -69 -33 0 -48 27
-33 59 13 29 43 34 62 10z m-1804 -33 c19 -38 37 -275 30 -395 -6 -98 -37
-294 -53 -336 -4 -8 -6 -18 -5 -22 1 -4 -5 -23 -14 -44 -12 -29 -18 -34 -25
-23 -5 8 -9 9 -9 4 0 -6 4 -15 10 -21 13 -13 -20 -86 -37 -80 -7 3 -15 0 -19
-6 -4 -7 -3 -8 4 -4 8 5 12 -2 12 -18 0 -16 -6 -26 -14 -26 -9 0 -12 -7 -9
-21 4 -15 0 -22 -16 -26 -11 -3 -18 -9 -15 -14 11 -19 -7 -51 -26 -46 -16 4
-17 2 -8 -12 16 -26 -17 -74 -44 -65 -17 5 -18 3 -9 -14 12 -23 6 -33 -17 -25
-14 4 -14 3 -3 -5 15 -11 7 -32 -12 -32 -7 0 -25 11 -40 25 -15 14 -27 22 -27
18 0 -4 14 -20 32 -35 25 -20 30 -30 21 -39 -9 -8 -16 -6 -30 11 -10 12 -27
26 -38 32 -12 6 -7 -4 14 -25 24 -25 32 -41 27 -54 -7 -16 -9 -15 -28 10 -28
39 -41 33 -17 -8 l21 -35 -60 -57 c-160 -155 -252 -234 -262 -228 -5 3 -10 -1
-13 -8 -10 -28 -242 -153 -377 -204 -116 -44 -258 -83 -303 -83 -18 0 -19 2
-7 10 13 8 13 10 -2 10 -9 0 -20 -4 -23 -10 -16 -25 -26 -6 -23 43 l3 52 65
13 c160 31 351 107 486 192 35 22 68 40 73 40 5 0 11 3 13 8 2 4 38 34 82 67
212 160 378 375 478 620 63 153 90 248 103 370 9 73 5 348 -6 414 -9 64 -9 75
6 91 32 35 91 30 111 -9z m1597 -242 c47 -51 29 -143 -35 -170 -67 -27 -148
26 -148 97 0 46 14 70 53 95 43 26 93 18 130 -22z m-6587 -54 c19 -29 11 -60
-21 -81 -37 -24 -85 6 -85 53 0 53 76 74 106 28z m6819 1 c13 -19 13 -29 4
-49 -9 -20 -46 -47 -64 -47 -12 0 -45 47 -45 64 0 53 76 77 105 32z m-6586
-10 c14 -16 55 -321 47 -342 -7 -19 -49 -34 -74 -27 -28 7 -39 40 -57 171 -19
143 -19 171 2 194 19 22 66 24 82 4z m1106 -121 c32 -31 32 -76 3 -109 -33
-36 -68 -42 -101 -16 -58 46 -20 148 56 150 10 0 29 -11 42 -25z m1735 -445
c-2 -510 7 -462 -86 -439 l-44 11 0 320 c0 292 2 324 20 378 11 33 28 72 38
88 17 29 65 90 70 91 1 1 2 -201 2 -449z m552 390 c76 -108 78 -120 78 -489
l0 -329 -22 -5 c-13 -3 -40 -10 -61 -15 -28 -7 -39 -7 -42 1 -10 29 -9 897 0
894 6 -2 27 -27 47 -57z m-2789 -17 c8 -10 21 -49 27 -88 51 -307 204 -670
399 -950 68 -96 206 -261 296 -350 105 -105 290 -248 431 -334 54 -32 110 -72
124 -87 l25 -27 -25 5 c-38 7 -283 167 -400 261 -224 181 -478 477 -595 694
-23 44 -30 50 -48 44 -27 -10 -34 -31 -10 -31 12 0 14 -3 6 -8 -9 -6 -7 -11 6
-19 15 -10 19 -9 17 2 -1 8 -5 18 -9 21 -10 10 -9 24 2 24 5 0 24 -30 42 -67
19 -37 40 -74 47 -81 7 -8 10 -22 7 -31 -12 -29 -14 -52 -4 -46 5 4 9 2 9 -4
0 -5 -4 -12 -9 -16 -12 -7 -167 229 -222 337 -78 156 -153 380 -198 590 -24
112 -26 149 -9 166 18 18 73 15 91 -5z m4715 -5 c19 -19 14 -76 -17 -214 -64
-280 -162 -491 -358 -766 -146 -206 -405 -454 -628 -602 -176 -117 -228 -134
-241 -79 -8 30 21 63 86 101 331 191 665 538 848 882 96 180 171 394 202 575
15 87 32 115 68 115 16 0 33 -5 40 -12z m-5528 -78 c28 -28 26 -66 -6 -86 -29
-19 -69 -11 -87 17 -14 23 -1 64 25 77 33 16 46 14 68 -8z m6526 -15 c19 -28
11 -60 -18 -76 -46 -25 -100 19 -77 64 24 45 69 51 95 12z m240 0 c15 -23 15
-27 0 -50 -17 -26 -57 -42 -76 -30 -6 4 -16 18 -21 32 -23 61 61 103 97 48z
m-485 -105 c10 -6 19 -21 19 -33 0 -29 -44 -202 -77 -300 l-26 -78 -40 3 c-27
2 -42 -2 -45 -11 -3 -8 0 -11 6 -7 6 3 22 1 37 -6 27 -12 28 -22 5 -83 -8 -22
-13 -24 -30 -15 -11 6 -20 8 -20 4 0 -3 -7 -1 -15 6 -8 7 -15 9 -15 4 0 -5 14
-18 30 -29 36 -24 39 -38 5 -25 -28 11 -32 4 -10 -20 13 -15 12 -23 -11 -81
-44 -107 -63 -139 -79 -133 -8 4 -15 11 -15 16 0 6 6 8 14 5 11 -5 56 56 56
77 0 19 -18 1 -30 -30 -11 -26 -19 -34 -32 -31 -10 3 -18 1 -18 -3 0 -5 -5
-21 -12 -37 -17 -41 -19 -63 -7 -63 5 0 7 5 4 10 -4 6 -1 9 7 8 8 -2 12 5 11
20 -2 12 1 22 5 22 19 0 20 -14 5 -45 -14 -30 -18 -32 -58 -29 -38 4 -43 1
-54 -24 l-12 -27 21 25 c17 21 21 23 30 10 7 -11 5 -16 -5 -18 -8 -2 -15 -10
-15 -17 0 -20 -21 -30 -31 -14 -5 8 -9 9 -9 4 0 -6 5 -16 12 -23 9 -9 8 -15
-8 -27 -25 -19 -40 -19 -24 0 7 9 11 17 9 20 -4 3 -149 -206 -158 -229 -2 -5
2 -5 9 -1 9 5 11 4 6 -4 -4 -6 -11 -9 -16 -6 -5 3 -63 -57 -129 -134 -205
-236 -437 -430 -731 -609 -102 -62 -334 -181 -415 -213 l-40 -15 42 0 c23 0
39 4 37 8 -7 11 0 10 30 -6 l27 -13 -33 -16 c-121 -56 -398 -142 -568 -177
-109 -22 -350 -46 -374 -37 -23 9 -22 74 2 81 9 3 69 10 132 16 403 38 852
206 1240 462 315 209 666 554 862 850 155 233 311 591 383 878 14 58 33 115
41 128 16 24 44 28 75 12z m-487 -53 c13 -36 -9 -76 -52 -94 -40 -16 -65 -6
-87 37 -20 38 -3 78 40 96 39 16 86 -2 99 -39z m936 -108 c9 -16 8 -26 -4 -44
-24 -37 -54 -41 -84 -12 -32 32 -25 71 15 85 32 11 58 1 73 -29z m-6696 15
c32 -31 7 -94 -37 -94 -27 0 -57 28 -57 53 0 48 61 74 94 41z m290 -43 c60
-40 72 -101 30 -150 -35 -42 -82 -50 -128 -22 -66 41 -68 132 -2 172 39 24 63
24 100 0z m1105 5 c15 -18 71 -184 71 -210 0 -29 -29 -56 -62 -56 -25 0 -32 7
-53 53 -13 28 -31 81 -39 116 -15 63 -14 63 9 87 27 27 57 31 74 10z m3705
-37 c33 -26 33 -59 0 -98 -48 -58 -134 -34 -134 37 0 31 52 82 83 82 13 0 36
-9 51 -21z m1326 -5 c21 -25 16 -75 -9 -96 -32 -25 -66 -23 -89 7 -22 27 -20
58 6 88 19 21 75 22 92 1z m-3750 -4 c0 -5 -4 -10 -10 -10 -5 0 -10 5 -10 10
0 6 5 10 10 10 6 0 10 -4 10 -10z m-2642 -132 c7 -7 12 -25 12 -40 0 -21 -6
-29 -25 -34 -47 -12 -71 31 -38 68 19 21 34 23 51 6z m6576 -4 c34 -34 8 -82
-39 -70 -19 5 -25 13 -25 34 0 48 34 67 64 36z m-996 -10 c12 -8 22 -24 22
-35 0 -39 -149 -313 -176 -323 -8 -3 -14 -12 -14 -20 0 -9 -6 -13 -14 -10 -9
3 -17 -3 -21 -16 -4 -13 -12 -19 -21 -16 -16 6 -19 -10 -4 -19 14 -9 7 -38
-17 -68 -21 -27 -40 -37 -27 -14 4 7 3 8 -2 4 -5 -5 -9 -16 -9 -25 0 -9 -6
-16 -13 -14 -8 1 -11 -2 -8 -6 6 -10 -94 -108 -106 -104 -4 1 -5 -5 -1 -14 5
-13 2 -15 -15 -9 -23 7 -31 -9 -9 -19 6 -3 3 -4 -8 -3 -11 1 -20 -3 -20 -9 0
-21 -48 -74 -64 -72 -9 2 -15 -3 -13 -10 2 -10 -2 -10 -18 -2 -27 14 -42 4
-35 -23 5 -17 4 -18 -4 -8 -8 12 -12 13 -26 1 -9 -7 -14 -19 -11 -27 4 -8 1
-11 -5 -8 -5 4 -40 -19 -77 -52 -37 -32 -85 -72 -107 -88 -22 -16 -49 -37 -59
-47 -24 -22 -36 -23 -36 -2 0 18 29 47 126 124 234 187 482 493 633 780 88
167 110 189 159 154z m-674 -113 c27 -30 9 -69 -100 -217 -228 -310 -541 -539
-924 -677 -129 -47 -320 -91 -368 -85 -24 3 -27 8 -30 45 -4 48 -10 44 123 68
50 8 133 29 185 46 137 44 379 166 505 255 154 107 344 302 453 462 73 107 87
122 111 122 15 0 36 -9 45 -19z m1410 -4 c14 -11 17 -21 11 -46 -6 -29 -10
-32 -38 -29 -18 2 -32 -2 -34 -9 -3 -7 2 -13 10 -13 8 0 20 -7 27 -15 11 -13
8 -14 -20 -9 -32 7 -32 7 -14 -14 9 -12 21 -19 26 -16 4 3 5 -2 2 -10 -8 -21
-31 -20 -43 2 -9 15 -10 15 -11 -5 0 -12 -4 -24 -9 -27 -4 -3 -7 -17 -6 -30 2
-14 -3 -27 -10 -30 -7 -2 -15 -15 -17 -28 -2 -16 -9 -22 -23 -20 -16 2 -27
-13 -57 -75 -123 -257 -363 -579 -619 -829 -226 -220 -401 -351 -674 -506
-210 -120 -396 -203 -609 -272 -42 -14 -85 -30 -96 -36 -16 -8 -20 -8 -20 3 0
24 21 35 157 81 150 52 301 117 423 183 47 25 114 62 150 81 227 122 563 388
747 590 275 302 471 603 593 907 68 170 77 185 108 185 15 0 36 -6 46 -13z
m217 -46 c20 -16 22 -23 14 -47 -9 -25 -16 -29 -50 -29 -38 0 -40 2 -43 32 -2
23 3 35 20 47 28 20 31 20 59 -3z m-6109 -161 c42 -85 77 -163 77 -172 1 -24
-15 -30 -16 -6 -1 11 -22 56 -47 100 -26 44 -46 86 -46 92 0 6 -4 4 -10 -4 -5
-8 -12 -11 -16 -7 -4 3 -1 13 6 22 11 13 10 14 -6 9 -10 -4 -25 -12 -33 -18
-11 -8 -13 -8 -7 1 4 8 -7 26 -29 48 -52 53 -42 99 20 93 28 -3 35 -13 107
-158z m-367 109 c0 -7 -8 -15 -17 -17 -18 -3 -25 18 -11 32 10 10 28 1 28 -15z
m1645 11 c10 -5 51 -51 91 -102 280 -357 595 -556 1057 -668 l133 -32 -3 -42
c-3 -39 -4 -41 -40 -44 -20 -2 -74 6 -120 18 -46 12 -90 22 -98 24 -8 1 -40
10 -70 20 -48 16 -80 29 -185 71 -11 5 -22 9 -25 10 -22 6 -158 75 -215 107
-149 86 -350 249 -463 376 -58 66 -80 100 -47 72 9 -7 15 -8 15 -2 0 5 -13 15
-29 20 -32 11 -91 89 -91 121 0 13 13 29 33 41 38 23 33 23 57 10z m-530 -10
c0 -5 -2 -10 -4 -10 -3 0 -8 5 -11 10 -3 6 -1 10 4 10 6 0 11 -4 11 -10z
m2125 -60 c0 -8 -7 -13 -15 -12 -8 2 -39 4 -67 3 -41 0 -53 3 -53 15 0 12 13
14 68 12 52 -2 67 -6 67 -18z m-17 -32 c16 1 22 -4 22 -18 0 -17 -4 -19 -27
-13 -39 10 -73 7 -87 -7 -8 -10 -7 -12 5 -7 9 3 22 2 29 -3 16 -10 3 -33 -16
-26 -7 3 -16 1 -19 -4 -6 -9 3 -11 79 -14 27 -1 30 -5 32 -37 l3 -37 -64 -1
-63 -1 -4 78 c-4 89 7 107 57 96 16 -4 40 -7 53 -6z m2986 -23 c-4 -8 -7 -15
-9 -15 -2 0 -5 7 -9 15 -3 9 0 15 9 15 9 0 12 -6 9 -15z m-5909 -15 c-3 -5 -1
-10 4 -10 6 0 11 5 11 10 0 6 4 10 9 10 11 0 95 -160 88 -167 -9 -8 -28 7 -22
18 4 5 1 9 -4 9 -6 0 -11 -4 -11 -10 0 -5 -7 -7 -15 -4 -22 9 -18 21 7 27 25
7 21 15 -9 20 -26 4 -53 25 -53 43 0 7 -7 20 -16 28 -15 16 -12 36 7 36 6 0 7
-4 4 -10z m1153 -103 c185 -232 419 -422 704 -572 152 -80 169 -94 153 -133
-6 -15 -8 -14 -15 5 -6 14 -46 40 -121 78 -276 137 -493 305 -700 541 -20 23
-43 45 -50 50 -12 7 22 -34 83 -101 10 -10 16 -25 13 -33 -2 -7 -1 -11 4 -8
12 8 33 -19 23 -29 -4 -5 -2 -5 4 -2 6 3 28 -12 49 -33 22 -22 36 -40 32 -40
-4 0 -10 0 -14 0 -5 0 -8 5 -8 10 0 14 -26 30 -37 24 -4 -3 -8 -13 -7 -22 0
-14 2 -13 9 3 7 18 8 18 15 -7 4 -16 11 -25 16 -22 9 5 13 -11 9 -31 -1 -5 2
-7 6 -3 4 5 13 -1 21 -12 8 -11 20 -17 31 -14 14 5 15 4 2 -5 -13 -9 -12 -11
5 -8 11 1 25 6 30 9 17 10 36 -7 30 -25 -13 -33 -37 -26 -104 27 -128 102
-351 362 -351 408 0 29 28 58 56 58 16 0 45 -29 112 -113z m4223 90 c-10 -9
-11 -8 -5 6 3 10 9 15 12 12 3 -3 0 -11 -7 -18z m727 7 c28 -19 29 -60 2 -74
-17 -9 -20 -8 -17 12 1 17 -3 23 -17 23 -26 0 -31 -19 -11 -39 9 -9 12 -16 6
-16 -18 0 -41 31 -41 55 0 20 32 55 50 55 3 0 16 -7 28 -16z m-3160 -22 c3
-10 -4 -13 -24 -10 -15 2 -29 9 -32 16 -3 10 4 13 24 10 15 -2 29 -9 32 -16z
m-3173 -12 c0 -8 -8 -16 -17 -18 -13 -2 -18 3 -18 18 0 15 5 20 18 18 9 -2 17
-10 17 -18z m5546 -10 c6 0 7 -5 3 -11 -4 -8 -9 -7 -14 2 -6 8 -14 0 -25 -27
-10 -21 -19 -33 -22 -27 -2 7 6 31 19 54 15 27 24 36 26 25 2 -9 8 -16 13 -16z
m491 -49 c-8 -4 -13 -11 -12 -15 3 -13 -7 -31 -14 -24 -10 9 12 48 27 48 8 0
8 -3 -1 -9z m-5388 -9 c3 -5 -1 -9 -9 -9 -8 0 -12 4 -9 9 3 4 7 8 9 8 2 0 6
-4 9 -8z m341 -20 c-3 -3 0 -11 6 -19 9 -10 8 -13 -5 -13 -9 0 -16 -5 -16 -11
0 -6 7 -8 16 -5 10 4 26 -3 42 -19 16 -16 19 -23 9 -19 -22 8 -21 4 6 -33 13
-18 29 -29 40 -27 11 1 16 0 13 -4 -21 -20 -63 8 -79 51 -2 7 -7 9 -11 6 -3
-3 3 -18 15 -33 12 -15 19 -29 16 -32 -3 -3 -23 18 -45 47 -33 43 -39 57 -30
72 7 13 7 22 0 29 -6 6 -8 17 -5 24 4 11 9 12 19 3 8 -7 12 -14 9 -17z m4525
-2 c0 -5 -5 -10 -11 -10 -5 0 -7 5 -4 10 3 6 8 10 11 10 2 0 4 -4 4 -10z
m-2449 -32 c0 -10 2 -10 6 0 8 20 33 14 33 -8 0 -13 -7 -20 -20 -20 -21 0 -27
-14 -11 -24 5 -4 11 0 14 6 3 10 7 10 19 0 11 -9 18 -10 23 -2 4 7 12 7 26 0
26 -14 16 -29 -16 -22 -15 2 -25 0 -25 -7 0 -6 11 -11 24 -11 30 0 43 -17 26
-33 -9 -9 -14 -8 -24 6 -10 13 -15 14 -19 5 -2 -8 -21 -13 -43 -13 l-38 0 1
53 c0 28 1 59 2 67 1 18 21 20 22 3z m103 -3 c6 -18 -16 -30 -39 -21 -20 7
-19 24 3 29 29 8 30 8 36 -8z m-3094 -34 c0 -11 -5 -23 -11 -27 -15 -9 -33 12
-26 30 9 23 37 20 37 -3z m5676 -45 c-14 -25 -32 -48 -38 -52 -7 -4 -2 6 10
23 12 17 26 43 32 58 6 15 13 25 16 22 4 -3 -5 -26 -20 -51z m492 31 c2 -12
-3 -17 -17 -17 -12 0 -21 6 -21 13 0 31 32 34 38 4z m-5519 -31 c-3 -3 -11 5
-18 17 -13 21 -12 21 5 5 10 -10 16 -20 13 -22z m4755 19 c-4 -8 -11 -12 -16
-9 -6 4 -5 10 3 15 19 12 19 11 13 -6z m-81 -33 c-3 -12 -9 -19 -14 -16 -5 3
-9 1 -9 -3 0 -5 -7 -18 -16 -29 -14 -18 -14 -18 -3 6 17 35 41 71 45 67 2 -1
1 -13 -3 -25z m-2275 -56 c34 -1 47 -5 47 -16 0 -9 -8 -14 -20 -13 -66 9 -85
8 -89 -2 -2 -7 15 -12 47 -13 54 -2 78 -15 61 -32 -6 -6 -19 -5 -37 5 -15 7
-27 10 -27 6 0 -5 -13 -11 -29 -13 -27 -4 -30 -2 -34 31 -5 45 1 61 19 54 8
-3 35 -6 62 -7z m-1998 -40 c0 -6 -7 -1 -15 10 -8 10 -15 23 -15 28 0 6 7 1
15 -10 8 -10 15 -23 15 -28z m-944 -1 c9 -14 13 -32 9 -45 -8 -25 -49 -54 -67
-47 -9 4 -8 6 3 6 24 1 50 34 40 50 -5 8 -16 11 -25 8 -9 -4 -16 -1 -16 6 -1
7 -9 1 -20 -12 -17 -20 -21 -21 -26 -7 -3 9 1 27 10 41 22 34 70 34 92 0z
m326 -52 c29 -42 82 -113 117 -157 73 -92 106 -144 97 -153 -3 -4 -6 -1 -6 6
0 7 -4 10 -8 7 -4 -2 -17 9 -27 25 -22 32 -35 37 -35 14 0 -8 -7 -15 -17 -15
-15 0 -14 2 2 20 17 18 16 21 -16 62 -18 24 -34 45 -36 47 -2 3 -10 -4 -17
-15 -8 -10 -18 -16 -22 -11 -4 4 -2 7 4 7 6 0 9 7 6 15 -4 8 -1 15 5 15 6 0
-10 27 -35 61 -30 39 -49 56 -54 49 -5 -8 -15 -4 -34 15 -30 30 -32 35 -11 35
8 0 15 -4 15 -9 0 -5 7 -11 15 -15 13 -4 13 -2 5 14 -22 40 -68 34 -71 -10 0
-9 -4 -7 -11 8 -15 29 14 62 53 62 25 0 37 -11 81 -77z m645 45 c2 -17 0 -19
-7 -8 -5 8 -6 18 -4 22 8 12 10 10 11 -14z m5013 -6 c0 -10 -3 -22 -7 -25 -10
-11 -32 13 -26 29 8 20 33 17 33 -4z m-4552 -46 c19 -19 29 -36 24 -40 -6 -3
-13 -2 -17 4 -3 5 -15 10 -27 10 -17 0 -18 2 -8 15 11 13 10 14 -3 10 -17 -7
-32 10 -22 25 10 15 17 12 53 -24z m1487 -7 c0 -9 -11 -14 -27 -14 -31 -1 -38
21 -10 28 25 7 37 2 37 -14z m60 6 c6 0 10 -7 10 -15 0 -16 -32 -16 -49 0 -12
12 3 32 17 23 7 -4 17 -8 22 -8z m-1918 -36 c-3 -10 -1 -20 4 -23 5 -2 4 -3
-2 -2 -7 1 -13 14 -13 28 -1 15 2 24 7 21 5 -3 7 -14 4 -24z m-743 -22 c11
-17 19 -35 18 -39 -1 -5 5 -8 14 -8 13 0 14 -3 4 -15 -15 -18 -32 -10 -28 13
2 10 -6 26 -17 37 -21 21 -30 45 -17 45 4 0 16 -15 26 -33z m811 -28 c28 -28
40 -46 28 -40 -12 6 -24 15 -28 20 -3 5 -16 8 -30 5 -13 -2 -26 0 -29 5 -3 4
6 7 19 5 14 -1 25 2 25 7 0 5 -4 9 -10 9 -5 0 -14 9 -20 20 -16 30 -9 25 45
-31z m1786 36 c0 -5 -10 -13 -23 -16 -23 -6 -22 -8 24 -23 10 -3 20 -1 23 4 3
5 12 7 20 3 8 -3 15 0 15 6 0 6 -6 11 -14 11 -16 0 -31 18 -23 26 2 3 15 2 28
-1 19 -5 24 -13 26 -40 l1 -34 -64 0 c-35 0 -65 3 -68 7 -2 4 -1 22 1 40 5 28
9 33 30 30 13 -2 24 -7 24 -13z m-1886 -15 c10 -11 16 -20 13 -20 -3 0 -13 9
-23 20 -10 11 -16 20 -13 20 3 0 13 -9 23 -20z m496 -11 c11 -6 18 -17 15 -24
-3 -8 0 -12 7 -9 7 2 24 -7 37 -21 25 -27 22 -35 -4 -9 -16 15 -36 12 -36 -7
0 -6 3 -8 8 -6 4 3 13 -1 20 -9 25 -28 -10 -14 -60 23 -41 30 -47 38 -34 45 9
5 22 6 29 2 8 -5 7 -2 -2 9 -16 20 -8 22 20 6z m3199 8 c0 -2 -12 -14 -27 -28
l-28 -24 24 28 c23 25 31 32 31 24z m1160 -52 c0 -15 -6 -25 -14 -25 -22 0
-30 19 -16 35 18 22 30 18 30 -10z m-5807 -1 c9 -10 -4 -34 -19 -34 -8 0 -14
9 -14 20 0 19 19 27 33 14z m2847 -30 c0 -8 -6 -14 -14 -14 -8 0 -21 -3 -30
-6 -11 -4 -16 0 -16 14 0 14 8 22 23 24 28 5 37 1 37 -18z m60 -5 c0 -15 -4
-19 -16 -15 -9 3 -20 6 -25 6 -5 0 -9 7 -9 15 0 9 9 15 25 15 19 0 25 -5 25
-21z m-1770 -20 c0 -5 -5 -9 -12 -9 -6 0 -8 3 -5 7 4 3 1 13 -6 22 -11 14 -10
14 6 2 9 -7 17 -17 17 -22z m-818 -1 c-7 -7 -12 -8 -12 -2 0 14 12 26 19 19 2
-3 -1 -11 -7 -17z m1242 -7 c20 9 20 9 3 -4 -15 -13 -28 -14 -55 -8 -2 1 0 6
4 12 4 7 9 8 17 0 7 -7 17 -7 31 0z m-1205 -23 c14 -19 5 -23 -18 -9 -7 5 -10
14 -6 21 4 6 8 10 9 8 1 -2 8 -11 15 -20z m2491 8 c0 -15 -48 -28 -56 -15 -9
15 6 29 32 29 14 0 24 -6 24 -14z m58 -9 c2 -11 -2 -14 -17 -10 -22 5 -26 14
-14 27 10 10 28 1 31 -17z m-1240 -45 c2 -12 7 -22 12 -22 5 0 7 8 4 18 -5 15
-4 15 8 1 7 -9 20 -14 28 -11 13 4 13 3 2 -10 -11 -14 -9 -19 9 -32 28 -19 40
-11 13 8 -18 13 -17 14 7 13 15 -1 32 -8 40 -16 11 -13 11 -14 -4 -8 -9 3 -17
3 -17 -2 0 -5 17 -12 38 -17 20 -4 40 -8 45 -9 4 -2 12 -3 18 -4 6 0 9 -8 5
-16 -5 -15 3 -18 34 -16 10 0 11 -1 2 -5 -6 -3 -10 -10 -6 -15 8 -14 -1 -11
-61 17 -31 15 -52 31 -48 37 3 6 1 7 -5 3 -14 -8 -117 43 -157 79 l-30 26 30
-6 c24 -5 27 -4 15 5 -13 10 -13 11 0 7 8 -2 16 -13 18 -25z m1182 4 c0 -8 -6
-17 -12 -19 -10 -4 -10 -8 1 -15 16 -11 6 -32 -15 -32 -8 0 -14 -4 -14 -10 0
-5 9 -10 21 -10 30 0 18 -24 -14 -28 -25 -3 -27 -1 -27 37 0 32 4 41 18 41 16
1 16 1 0 14 -27 20 -22 36 12 36 19 0 30 -5 30 -14z m60 -6 c0 -23 -4 -24 -31
-9 -23 12 -16 29 12 29 12 0 19 -7 19 -20z m2814 -5 c22 -22 29 -52 16 -72
-10 -16 -10 -16 -5 3 7 28 -16 47 -49 38 -14 -3 -26 -10 -26 -16 0 -5 -4 -7
-9 -4 -5 4 -12 0 -14 -6 -3 -7 -6 -1 -6 14 -2 46 60 75 93 43z m-5604 -15 c22
-22 27 -65 8 -76 -7 -4 -8 -3 -4 4 4 6 2 21 -4 32 -16 29 -60 23 -77 -10 l-13
-25 0 32 c0 25 6 36 28 47 35 20 38 20 62 -4z m4280 14 c0 -8 -43 -43 -53 -44
-4 0 3 11 15 24 22 24 38 32 38 20z m-3970 -25 c0 -5 -7 -9 -15 -9 -8 0 -15 7
-15 15 0 9 6 12 15 9 8 -4 15 -10 15 -15z m517 -11 c32 -42 5 -98 -47 -98 -46
0 -68 61 -34 94 19 19 68 21 81 4z m1968 -8 c3 -6 -5 -10 -19 -10 -14 0 -28 5
-31 10 -3 6 5 10 19 10 14 0 28 -4 31 -10z m-5 -45 c0 -16 -35 -21 -44 -6 -8
12 4 21 26 21 10 0 18 -7 18 -15z m1728 -11 c25 -17 31 -57 8 -48 -8 3 -25 0
-38 -6 -21 -10 -21 -10 -5 3 10 9 14 18 8 21 -5 3 -42 -20 -83 -52 -84 -67
-200 -146 -273 -187 -27 -15 -59 -34 -70 -42 -19 -14 -18 -15 10 -8 17 4 38 7
48 7 9 0 15 3 12 7 -7 12 22 33 50 36 17 2 22 -1 18 -11 -4 -10 0 -12 13 -8
13 5 10 0 -8 -14 -14 -12 -29 -22 -32 -22 -3 0 -22 -12 -43 -26 -214 -146
-744 -321 -1062 -349 -82 -7 -91 -3 -91 52 0 38 -4 36 145 53 158 18 279 46
441 101 272 92 504 211 717 365 228 166 202 152 235 128z m-3910 -6 c7 -7 12
-24 12 -38 0 -14 -5 -31 -12 -38 -7 -7 -24 -12 -38 -12 -14 0 -31 5 -38 12 -7
7 -12 24 -12 38 0 14 5 31 12 38 7 7 24 12 38 12 14 0 31 -5 38 -12z m2105
-19 c13 2 18 -3 15 -16 -2 -11 -13 -18 -31 -20 -23 -1 -27 2 -27 23 0 18 4 23
13 17 6 -4 20 -6 30 -4z m-880 -14 c-3 -9 -8 -14 -10 -11 -3 3 -2 9 2 15 9 16
15 13 8 -4z m960 1 c7 -19 0 -25 -24 -19 -10 3 -19 12 -19 19 0 18 36 18 43 0z
m-2727 -55 c-22 -21 -46 0 -26 24 10 12 16 13 27 3 12 -10 12 -13 -1 -27z
m3378 23 c18 -48 -8 -67 -136 -100 -114 -29 -291 -56 -312 -48 -11 4 -16 19
-16 45 0 45 -8 41 150 64 58 9 137 24 175 34 89 24 131 26 139 5z m2034 -18
c3 -14 0 -17 -12 -13 -9 4 -16 2 -16 -3 0 -6 -4 -10 -10 -10 -11 0 -14 33 -3
44 12 12 38 1 41 -18z m-2683 5 c8 -14 -10 -22 -30 -15 -13 5 -14 8 -3 15 17
11 26 11 33 0z m-67 -20 c2 -6 -3 -11 -11 -11 -9 0 -22 -3 -31 -6 -11 -4 -16
0 -16 14 0 16 6 20 27 18 15 -2 29 -8 31 -15z m1232 -10 c13 -25 13 -34 0 -26
-5 3 -10 -1 -10 -9 0 -32 -148 -112 -348 -186 -165 -63 -363 -110 -524 -126
-79 -8 -98 2 -98 52 0 38 -5 36 155 54 215 25 413 90 705 229 75 36 105 39
120 12z m-1164 -16 c4 -8 3 -23 -1 -32 -6 -17 -7 -17 -19 0 -9 11 -20 15 -31
11 -13 -5 -16 -3 -13 7 3 8 12 13 22 11 9 -2 16 2 16 8 0 15 20 12 26 -5z
m-1612 -47 c39 -29 116 -75 171 -104 107 -55 127 -73 109 -101 -21 -34 -66
-27 -170 27 -117 61 -231 136 -244 160 -11 21 22 70 47 70 8 0 47 -23 87 -52z
m1531 27 c0 -5 -10 -11 -22 -13 -16 -2 -23 2 -23 13 0 11 7 15 23 13 12 -2 22
-7 22 -13z m-2517 -7 c18 -18 15 -42 -7 -62 -20 -18 -56 -19 -56 -1 0 6 -4 16
-9 23 -10 16 20 52 44 52 9 0 21 -5 28 -12z m2037 -13 c72 -19 144 -63 181
-112 34 -45 73 -139 74 -176 0 -24 -3 -27 -20 -22 -11 4 -20 2 -20 -4 0 -6 9
-11 19 -11 24 0 28 -12 21 -64 -4 -31 -10 -41 -23 -40 -13 1 -15 -4 -11 -21 6
-24 -20 -85 -36 -85 -6 0 -10 -6 -10 -14 0 -23 -22 -31 -32 -12 -5 9 -17 16
-26 16 -13 0 -12 -5 8 -20 28 -21 28 -19 -23 -54 -33 -23 -37 -24 -46 -8 -9
15 -10 14 -11 -7 0 -18 -4 -22 -20 -18 -11 3 -22 2 -25 -2 -2 -4 -21 -7 -42
-6 -30 1 -38 5 -39 20 -1 11 -2 25 -3 32 -1 7 -8 10 -16 7 -12 -5 -13 -10 -4
-20 13 -15 5 -44 -11 -44 -6 0 -15 10 -20 23 -5 12 -9 16 -9 10 -1 -18 -12
-16 -80 14 -65 29 -81 49 -30 39 17 -3 38 -6 45 -6 8 0 14 -7 14 -15 0 -8 5
-15 10 -15 6 0 10 4 10 9 0 5 2 15 5 23 4 9 -7 13 -40 15 -26 1 -53 7 -61 13
-10 9 -14 9 -14 1 0 -9 -5 -9 -20 -1 -24 13 -26 30 -3 30 9 0 13 3 9 7 -4 4
-17 8 -29 8 -12 0 -23 7 -25 17 -3 16 6 17 95 15 81 -2 98 1 98 13 0 8 -7 13
-15 11 -8 -2 -48 -4 -88 -4 -53 0 -77 4 -83 14 -6 10 -9 10 -9 2 0 -18 -25
-16 -40 2 -14 17 -13 17 58 18 67 0 49 13 -23 15 -59 2 -81 -7 -55 -23 6 -3
10 -13 10 -21 0 -15 -44 -15 -70 1 -10 6 -12 4 -7 -9 4 -10 7 -24 7 -32 0 -8
5 -14 10 -14 6 0 10 7 10 15 0 19 14 19 30 0 13 -16 5 -37 -13 -34 -7 1 -20
-1 -30 -6 -23 -10 -27 -5 -31 39 -2 20 -6 39 -10 43 -3 3 -1 13 6 20 9 11 9
16 -1 23 -8 4 -10 13 -6 21 5 7 9 34 10 59 3 95 77 207 177 271 105 67 206 84
323 54z m-1671 -93 c224 -213 546 -420 881 -564 67 -29 103 -53 94 -63 -4 -3
-60 18 -125 46 -379 168 -628 328 -878 566 -101 96 -132 109 -124 52 3 -15 1
-26 -4 -23 -12 8 -10 58 4 72 25 25 51 9 152 -86z m258 61 c31 -28 22 -70 -19
-92 -51 -26 -95 -6 -95 44 0 56 72 86 114 48z m1898 2 c0 -7 -11 -15 -25 -17
-19 -4 -25 -1 -25 12 0 12 8 18 25 18 14 0 25 -6 25 -13z m67 0 c3 -9 3 -18 1
-21 -9 -9 -38 8 -38 22 0 19 29 18 37 -1z m1507 -13 c2 -4 -5 -9 -17 -9 -17
-2 -19 0 -7 7 18 12 18 12 24 2z m-1578 -32 c8 0 14 -7 14 -16 0 -11 -6 -14
-20 -9 -14 5 -20 2 -20 -10 0 -11 7 -15 20 -13 10 2 19 -1 19 -7 0 -5 -7 -10
-17 -10 -9 0 -23 -4 -29 -8 -10 -6 -13 4 -13 38 0 39 3 46 16 41 9 -3 22 -6
30 -6z m68 4 c9 -3 16 -10 16 -16 0 -14 -43 -5 -48 10 -4 13 7 15 32 6z m1466
-4 c8 -5 11 -10 5 -10 -5 0 -17 5 -25 10 -8 5 -10 10 -5 10 6 0 17 -5 25 -10z
m-10 -25 c11 -13 10 -14 -4 -9 -9 3 -16 10 -16 15 0 13 6 11 20 -6z m-1442
-28 c2 -10 -1 -17 -6 -17 -22 0 -42 13 -42 26 0 20 44 11 48 -9z m2434 -13
c11 -22 10 -28 -7 -40 -25 -18 -49 -18 -65 1 -10 12 -9 20 4 40 22 33 53 32
68 -1z m-2504 -42 c2 -7 -6 -12 -17 -12 -12 0 -21 -4 -21 -10 0 -5 -4 -10 -10
-10 -5 0 -10 9 -10 19 0 28 49 39 58 13z m62 -8 c0 -8 -9 -14 -20 -14 -13 0
-20 7 -20 19 0 14 5 18 20 14 11 -3 20 -12 20 -19z m-1748 4 c36 -30 22 -78
-28 -92 -48 -14 -74 59 -32 88 27 19 39 20 60 4z m-691 -8 c35 -19 20 -90 -20
-90 -20 0 -51 30 -51 48 0 17 28 52 42 52 5 0 18 -5 29 -10z m2389 -40 c0 -5
-11 -10 -25 -10 -14 0 -28 0 -32 -1 -4 0 -9 4 -11 10 -2 7 11 11 32 11 20 0
36 -4 36 -10z m51 -5 c1 -17 -18 -17 -25 0 -4 11 -1 15 10 13 8 -2 15 -7 15
-13z m-70 -40 c0 -5 -12 -11 -26 -13 -18 -2 -25 1 -25 13 0 12 7 15 25 13 14
-2 26 -7 26 -13z m69 -6 c0 -24 -23 -21 -28 4 -2 10 3 17 12 17 10 0 16 -9 16
-21z m-60 -44 c0 -6 -13 -12 -30 -13 -27 -1 -40 15 -25 30 10 9 55 -4 55 -17z
m60 5 c0 -5 -9 -10 -20 -10 -11 0 -20 5 -20 10 0 6 9 10 20 10 11 0 20 -4 20
-10z m0 -51 c0 -24 -23 -21 -28 4 -2 10 3 17 12 17 10 0 16 -9 16 -21z m-50 1
c0 -5 -16 -10 -35 -10 -19 0 -35 5 -35 10 0 6 16 10 35 10 19 0 35 -4 35 -10z
m-52 -47 c-5 -25 -28 -28 -28 -4 0 12 6 21 16 21 9 0 14 -7 12 -17z m37 -14
c0 -13 -6 -24 -13 -24 -6 0 -12 3 -12 8 0 4 0 16 0 28 0 12 5 19 13 16 6 -2
12 -15 12 -28z m51 3 c-18 -18 -31 -10 -23 12 4 10 13 13 22 9 15 -5 15 -7 1
-21z m2082 -24 c15 -15 16 -55 0 -64 -7 -5 -9 -2 -5 9 4 10 -3 21 -18 31 -34
23 -45 20 -46 -11 -2 -25 -2 -25 -6 -5 -8 43 44 71 75 40z m-2083 -7 c10 -17
-12 -21 -25 -6 -10 12 -10 15 3 15 9 0 18 -4 22 -9z m-105 -12 c0 -6 6 -9 13
-6 19 7 41 -8 33 -22 -9 -14 -36 -15 -36 -1 0 6 -7 10 -15 10 -8 0 -15 -2 -15
-4 0 -2 -3 -12 -7 -21 -5 -14 -2 -16 15 -10 16 4 22 2 22 -9 0 -8 -4 -18 -10
-21 -5 -3 -10 -1 -10 4 0 25 -27 8 -42 -25 -16 -35 -16 -35 8 -44 13 -5 31 -7
39 -4 9 4 17 -1 21 -10 9 -22 -1 -30 -23 -20 -10 4 -25 9 -33 10 -8 2 -25 6
-37 10 -15 4 -23 2 -23 -5 0 -7 -12 -23 -26 -36 -25 -23 -25 -25 -9 -42 12
-12 14 -18 6 -21 -7 -2 -18 4 -25 14 -12 15 -8 24 30 71 24 29 58 85 76 123
31 64 48 86 48 59z m-813 -14 c3 -9 3 -19 -1 -22 -7 -7 -36 16 -36 28 0 15 30
10 37 -6z m2122 -9 c-2 -2 -17 -8 -33 -12 -21 -5 -27 -4 -22 5 4 6 16 11 27
11 13 0 18 4 13 13 -5 9 -4 9 6 0 8 -7 12 -15 9 -17z m-1213 -7 c3 -6 -3 -21
-15 -32 l-21 -21 0 25 c0 37 20 53 36 28z m-2106 -3 c0 -2 3 -13 7 -23 6 -16
5 -17 -11 -3 -16 13 -20 12 -32 -5 -18 -24 -29 -13 -14 14 9 17 50 31 50 17z
m1220 -36 c3 -1 -5 -5 -17 -10 l-23 -9 25 -37 c14 -20 25 -41 25 -45 0 -5 5
-9 11 -9 15 0 48 -42 49 -62 0 -9 -5 -18 -12 -20 -12 -4 -3 -28 11 -28 4 0 12
10 17 21 9 19 12 20 24 7 8 -8 23 -17 33 -21 21 -8 23 -27 2 -27 -8 0 -15 5
-15 10 0 16 -46 12 -61 -6 -11 -14 -15 -13 -31 8 -22 28 -22 42 -3 58 20 17
19 30 -4 30 -10 0 -21 -9 -24 -20 -7 -28 -23 -25 -44 10 -9 17 -21 30 -25 30
-4 0 -8 7 -8 15 0 27 29 16 37 -14 7 -27 10 -28 27 -15 19 13 19 15 -12 42
-18 16 -32 36 -32 46 0 17 -26 33 -37 22 -4 -3 -1 -12 5 -18 14 -14 16 -38 3
-38 -9 0 -41 55 -41 71 0 13 89 20 120 9z m840 1 c0 -6 -4 -13 -10 -16 -5 -3
-10 1 -10 9 0 9 5 16 10 16 6 0 10 -4 10 -9z m-60 -52 c0 -5 -4 -9 -10 -9 -5
0 -10 7 -10 16 0 8 5 12 10 9 6 -3 10 -10 10 -16z m60 6 c10 -12 10 -15 -3
-15 -8 0 -22 -3 -31 -6 -10 -4 -16 -1 -16 9 0 14 12 24 31 26 4 1 12 -6 19
-14z m-815 -5 c3 -5 1 -10 -4 -10 -6 0 -11 5 -11 10 0 6 2 10 4 10 3 0 8 -4
11 -10z m-1031 -36 c26 -10 38 -41 26 -64 -6 -11 -15 -20 -21 -20 -6 0 -6 8 1
21 21 38 -22 65 -54 33 -13 -12 -16 -12 -16 -2 0 30 31 45 64 32z m3710 -10
c9 -8 16 -22 16 -30 0 -10 -5 -9 -20 6 -22 22 -29 24 -49 11 -8 -5 -10 -14 -6
-21 6 -9 4 -11 -5 -5 -10 6 -12 3 -8 -13 4 -12 2 -20 -3 -16 -16 9 -10 43 11
64 24 24 43 25 64 4z m-1976 -42 c2 -7 -3 -12 -12 -12 -9 0 -16 7 -16 16 0 17
22 14 28 -4z m-1728 4 c0 -2 -7 -9 -15 -16 -13 -11 -14 -10 -9 4 5 14 24 23
24 12z m1770 -3 c-1 -14 -30 -47 -36 -41 -10 11 7 48 22 48 8 0 14 -3 14 -7z
m-58 -43 c17 -16 19 -23 10 -32 -10 -10 -14 -8 -18 10 -4 12 -13 22 -20 22 -8
0 -14 5 -14 10 0 16 19 12 42 -10z m-90 -32 c30 -36 36 -58 14 -58 -7 0 -19
14 -26 30 -7 17 -19 30 -26 30 -15 0 -19 12 -7 23 11 11 16 8 45 -25z m-57
-17 c3 -11 15 -23 26 -26 22 -7 26 -35 4 -35 -8 0 -15 5 -15 10 0 6 -9 19 -20
30 -19 19 -22 19 -36 5 -16 -16 -44 -21 -44 -7 0 9 50 40 67 41 6 1 14 -8 18
-18z m128 4 c1 -5 -6 -11 -15 -13 -11 -2 -18 3 -18 13 0 17 30 18 33 0z
m-1466 -32 c2 -6 -8 -13 -22 -15 -27 -6 -32 1 -13 20 14 14 30 11 35 -5z m973
7 c0 -5 -7 -10 -15 -10 -8 0 -15 5 -15 10 0 6 7 10 15 10 8 0 15 -4 15 -10z
m-58 -18 c-7 -2 -12 -10 -12 -18 0 -8 -4 -14 -10 -14 -5 0 -10 6 -10 13 0 19
21 37 34 30 6 -4 6 -8 -2 -11z m108 2 c0 -9 -7 -14 -17 -12 -25 5 -28 28 -4
28 12 0 21 -6 21 -16z m210 4 c0 -8 -12 -12 -33 -12 -49 2 -55 6 -22 14 45 12
55 11 55 -2z m1965 2 c4 -6 -6 -10 -22 -10 -22 0 -25 2 -13 10 19 12 27 12 35
0z m-2110 -10 c-3 -5 -13 -10 -21 -10 -8 0 -14 5 -14 10 0 6 9 10 21 10 11 0
17 -4 14 -10z m45 0 c0 -5 -4 -10 -10 -10 -5 0 -10 5 -10 10 0 6 5 10 10 10 6
0 10 -4 10 -10z m210 -20 c0 -11 -4 -20 -10 -20 -5 0 -10 2 -10 4 0 2 -3 11
-6 20 -4 11 -1 16 10 16 9 0 16 -8 16 -20z m-380 -5 c0 -8 -7 -15 -15 -15 -8
0 -15 7 -15 15 0 8 7 15 15 15 8 0 15 -7 15 -15z m43 -20 c-3 -8 -9 -15 -14
-15 -10 0 -12 24 -3 33 11 11 24 -3 17 -18z m177 -11 c0 -13 -4 -24 -10 -24
-5 0 -10 14 -10 31 0 17 4 28 10 24 6 -3 10 -17 10 -31z m63 16 c3 -13 0 -20
-9 -20 -8 0 -14 9 -14 20 0 11 4 20 9 20 5 0 11 -9 14 -20z m57 4 c0 -17 -22
-14 -28 4 -2 7 3 12 12 12 9 0 16 -7 16 -16z m-215 -4 c10 -17 -6 -34 -17 -19
-7 11 -11 11 -15 1 -6 -15 -23 -6 -23 14 0 16 45 20 55 4z m45 0 c-12 -8 -13
-11 -1 -19 9 -6 10 -11 2 -15 -16 -10 -31 2 -31 25 0 13 7 19 23 19 18 0 19
-2 7 -10z m2080 6 c0 -2 -7 -7 -16 -10 -8 -3 -12 -2 -9 4 6 10 25 14 25 6z
m-929 -26 c43 -23 5 -100 -49 -100 -35 0 -52 16 -52 49 0 50 53 76 101 51z
m-2068 -10 c-26 -10 -30 -42 -9 -59 23 -19 48 -2 44 30 -3 15 -1 26 4 23 13
-8 9 -51 -7 -64 -21 -18 -48 -8 -59 22 -11 30 5 58 33 57 11 0 9 -3 -6 -9z
m2755 -32 c21 -21 14 -57 -12 -70 -30 -13 -56 -5 -56 19 0 15 1 15 14 -2 19
-27 48 -13 44 22 -3 31 -35 44 -49 21 -5 -7 -9 -8 -9 -2 0 26 46 34 68 12z
m-963 -37 c0 -43 -17 -49 -148 -51 -158 -3 -149 -6 -145 38 l3 37 55 6 c30 3
96 6 145 5 l90 -1 0 -34z m-1438 -52 c6 -6 8 -20 5 -32 -6 -21 -6 -21 -12 3
-8 32 -36 38 -45 9 -5 -16 -2 -27 11 -37 18 -13 18 -14 -1 -10 -23 4 -32 42
-15 64 15 17 42 18 57 3z m2065 -35 c13 -28 3 -54 -23 -63 -9 -3 -8 1 4 13 21
21 22 40 2 56 -22 18 -37 1 -33 -37 4 -31 3 -33 -9 -17 -17 23 -16 39 3 58 23
23 43 20 56 -10z m-1682 -69 c7 -8 9 -22 5 -32 -7 -16 -9 -15 -15 7 -4 17 -13
25 -28 24 -11 0 -19 3 -16 8 8 13 41 9 54 -7z m1340 -10 c-18 -22 -3 -57 23
-53 16 2 22 10 22 30 -1 14 3 24 7 22 14 -9 8 -52 -8 -58 -29 -11 -44 -6 -56
19 -8 19 -8 28 2 40 7 8 15 15 17 15 3 0 0 -7 -7 -15z m-1062 -62 c-5 -26 -38
-29 -38 -4 0 15 6 21 21 21 14 0 19 -5 17 -17z m518 -3 c0 -8 -5 -21 -10 -29
-8 -11 -8 -13 2 -7 6 4 12 3 12 -2 0 -18 -53 -23 -151 -16 -102 7 -117 15
-103 56 5 17 15 18 127 16 100 -2 122 -6 123 -18z m324 6 c0 -2 -3 -11 -6 -20
-9 -23 -34 -20 -34 4 0 13 7 20 20 20 11 0 20 -2 20 -4z m15 -873 c83 -7 67
-9 -195 -25 -230 -14 -319 -16 -460 -7 -96 5 -232 12 -303 16 -70 3 -125 9
-121 12 17 18 854 21 1079 4z"/>
<path d="M3625 4550 c-3 -5 1 -10 10 -10 9 0 13 5 10 10 -3 6 -8 10 -10 10 -2
0 -7 -4 -10 -10z"/>
<path d="M3645 4450 c-3 -5 -1 -10 4 -10 6 0 11 5 11 10 0 6 -2 10 -4 10 -3 0
-8 -4 -11 -10z"/>
<path d="M3680 4450 c0 -5 5 -10 11 -10 5 0 7 5 4 10 -3 6 -8 10 -11 10 -2 0
-4 -4 -4 -10z"/>
<path d="M7795 4450 c3 -5 8 -10 11 -10 2 0 4 5 4 10 0 6 -5 10 -11 10 -5 0
-7 -4 -4 -10z"/>
<path d="M3645 4400 c-3 -6 1 -13 10 -16 19 -8 30 0 20 15 -8 14 -22 14 -30 1z"/>
<path d="M7740 4359 c0 -5 9 -9 20 -9 11 0 20 2 20 4 0 2 -9 6 -20 9 -11 3
-20 1 -20 -4z"/>
<path d="M3750 4350 c0 -5 5 -10 10 -10 6 0 10 5 10 10 0 6 -4 10 -10 10 -5 0
-10 -4 -10 -10z"/>
<path d="M3770 4296 c0 -9 5 -16 10 -16 6 0 10 4 10 9 0 6 -4 13 -10 16 -5 3
-10 -1 -10 -9z"/>
<path d="M3710 4290 c-13 -8 -12 -10 3 -10 9 0 17 5 17 10 0 12 -1 12 -20 0z"/>
<path d="M3780 4250 c0 -5 5 -10 11 -10 5 0 7 5 4 10 -3 6 -8 10 -11 10 -2 0
-4 -4 -4 -10z"/>
<path d="M3724 4231 c4 -5 0 -12 -6 -14 -8 -3 -6 -6 5 -6 9 -1 17 6 17 14 0 8
-5 15 -11 15 -5 0 -8 -4 -5 -9z"/>
<path d="M3740 4180 c0 -5 7 -10 16 -10 8 0 12 5 9 10 -3 6 -10 10 -16 10 -5
0 -9 -4 -9 -10z"/>
<path d="M3825 4180 c-3 -5 1 -10 10 -10 9 0 13 5 10 10 -3 6 -8 10 -10 10 -2
0 -7 -4 -10 -10z"/>
<path d="M3847 4130 c3 -11 9 -17 14 -15 10 7 1 35 -11 35 -5 0 -6 -9 -3 -20z"/>
<path d="M3877 4094 c-7 -8 15 -44 27 -44 5 0 2 8 -7 18 -10 10 -14 22 -10 25
3 4 4 7 1 7 -2 0 -7 -3 -11 -6z"/>
<path d="M7656 4063 c-6 -14 -5 -15 5 -6 7 7 10 15 7 18 -3 3 -9 -2 -12 -12z"/>
<path d="M3810 4063 c0 -14 19 -38 25 -32 8 8 -5 39 -16 39 -5 0 -9 -3 -9 -7z"/>
<path d="M3866 3981 c-3 -5 1 -11 9 -15 15 -6 29 7 18 18 -9 9 -21 8 -27 -3z"/>
<path d="M3950 3980 c0 -5 5 -10 11 -10 5 0 7 5 4 10 -3 6 -8 10 -11 10 -2 0
-4 -4 -4 -10z"/>
<path d="M3989 3931 c13 -10 21 -22 18 -27 -3 -6 3 -10 14 -10 17 0 16 3 -8
28 -15 15 -32 28 -37 28 -6 0 0 -9 13 -19z"/>
<path d="M7529 3923 c-13 -16 -12 -17 4 -4 9 7 17 15 17 17 0 8 -8 3 -21 -13z"/>
<path d="M3932 3898 c3 -7 13 -15 24 -17 16 -3 17 -1 5 13 -16 19 -34 21 -29
4z"/>
<path d="M3967 3864 c-9 -10 22 -44 40 -44 7 0 13 5 13 10 0 6 -7 10 -15 10
-7 0 -18 7 -23 15 -4 9 -11 12 -15 9z"/>
<path d="M4060 3860 c0 -5 5 -10 11 -10 5 0 7 5 4 10 -3 6 -8 10 -11 10 -2 0
-4 -4 -4 -10z"/>
<path d="M4102 3738 c5 -15 28 -23 28 -10 0 5 -7 13 -16 16 -10 4 -14 1 -12
-6z"/>
<path d="M4570 3530 c0 -5 5 -10 10 -10 6 0 10 5 10 10 0 6 -4 10 -10 10 -5 0
-10 -4 -10 -10z"/>
<path d="M4620 3505 c0 -8 -4 -15 -10 -15 -5 0 -10 -4 -10 -10 0 -5 7 -10 15
-10 9 0 15 9 15 25 0 14 -2 25 -5 25 -3 0 -5 -7 -5 -15z"/>
<path d="M4670 3500 c0 -5 5 -10 11 -10 5 0 7 5 4 10 -3 6 -8 10 -11 10 -2 0
-4 -4 -4 -10z"/>
<path d="M2250 4521 c0 -5 9 -7 20 -4 11 3 20 7 20 9 0 2 -9 4 -20 4 -11 0
-20 -4 -20 -9z"/>
<path d="M2278 4463 c7 -3 16 -2 19 1 4 3 -2 6 -13 5 -11 0 -14 -3 -6 -6z"/>
<path d="M2325 4439 c-4 -5 -13 -8 -19 -6 -7 3 -18 2 -25 -2 -9 -6 -8 -11 4
-21 10 -9 15 -9 15 -1 0 7 10 10 25 7 17 -3 25 0 25 9 0 18 -17 28 -25 14z"/>
<path d="M2351 4390 c0 -8 6 -28 14 -45 17 -39 18 -21 0 25 -7 19 -14 28 -14
20z"/>
<path d="M2303 4373 c-15 -6 -17 -29 -3 -38 6 -3 7 1 4 9 -4 11 0 16 10 16 9
0 16 5 16 10 0 11 -7 12 -27 3z"/>
<path d="M2323 4313 c-15 -5 -18 -33 -4 -33 5 0 12 6 14 13 4 9 6 9 6 -1 1
-18 21 -5 21 14 0 14 -14 17 -37 7z"/>
<path d="M2343 4253 c-22 -8 -14 -28 12 -29 28 -2 28 -2 19 20 -6 17 -11 18
-31 9z"/>
<path d="M2400 4245 c0 -5 5 -17 10 -25 5 -8 10 -10 10 -5 0 6 -5 17 -10 25
-5 8 -10 11 -10 5z"/>
<path d="M2364 4184 c3 -9 6 -18 6 -20 0 -3 10 1 23 8 12 7 25 11 30 10 4 -1
7 3 7 8 0 6 -16 10 -36 10 -29 0 -35 -3 -30 -16z"/>
<path d="M2440 4141 c0 -6 4 -13 10 -16 6 -3 7 1 4 9 -7 18 -14 21 -14 7z"/>
<path d="M2465 4093 c5 -19 2 -23 -14 -23 -12 0 -21 -4 -21 -10 0 -14 13 -13
34 3 16 11 17 17 7 33 -11 18 -12 17 -6 -3z"/>
<path d="M2410 4090 c-12 -8 -11 -10 8 -10 12 0 22 5 22 10 0 13 -11 13 -30 0z"/>
<path d="M2530 3954 c0 -6 7 -19 16 -30 14 -18 14 -18 3 6 -14 31 -19 36 -19
24z"/>
<path d="M5710 4891 c0 -6 4 -13 10 -16 6 -3 7 1 4 9 -7 18 -14 21 -14 7z"/>
<path d="M4360 4786 c0 -9 30 -14 35 -6 4 6 -3 10 -14 10 -12 0 -21 -2 -21 -4z"/>
<path d="M4360 4730 c19 -13 30 -13 30 0 0 6 -10 10 -22 10 -19 0 -20 -2 -8
-10z"/>
<path d="M4420 4730 c0 -5 5 -10 11 -10 5 0 7 5 4 10 -3 6 -8 10 -11 10 -2 0
-4 -4 -4 -10z"/>
<path d="M4370 4690 c0 -5 5 -10 11 -10 5 0 7 5 4 10 -3 6 -8 10 -11 10 -2 0
-4 -4 -4 -10z"/>
<path d="M5780 4689 c0 -5 5 -7 10 -4 6 3 10 8 10 11 0 2 -4 4 -10 4 -5 0 -10
-5 -10 -11z"/>
<path d="M4422 4641 c2 -7 7 -12 11 -12 12 1 9 15 -3 20 -7 2 -11 -2 -8 -8z"/>
<path d="M5720 4640 c0 -5 5 -10 10 -10 6 0 10 5 10 10 0 6 -4 10 -10 10 -5 0
-10 -4 -10 -10z"/>
<path d="M5776 4641 c-4 -5 -2 -12 3 -15 5 -4 12 -2 15 3 4 5 2 12 -3 15 -5 4
-12 2 -15 -3z"/>
<path d="M4405 4589 c-8 -12 8 -16 35 -8 28 8 26 10 -8 14 -12 1 -25 -1 -27
-6z"/>
<path d="M5721 4584 c0 -11 3 -14 6 -6 3 7 2 16 -1 19 -3 4 -6 -2 -5 -13z"/>
<path d="M4355 4580 c3 -5 11 -10 16 -10 6 0 7 5 4 10 -3 6 -11 10 -16 10 -6
0 -7 -4 -4 -10z"/>
<path d="M4410 4541 c0 -11 26 -22 34 -14 3 3 3 10 0 14 -7 12 -34 11 -34 0z"/>
<path d="M5700 4530 c0 -5 4 -10 9 -10 6 0 13 5 16 10 3 6 -1 10 -9 10 -9 0
-16 -4 -16 -10z"/>
<path d="M5780 4514 c0 -8 5 -12 10 -9 6 4 8 11 5 16 -9 14 -15 11 -15 -7z"/>
<path d="M4372 4491 c2 -7 7 -12 11 -12 12 1 9 15 -3 20 -7 2 -11 -2 -8 -8z"/>
<path d="M4420 4491 c0 -5 7 -11 15 -15 9 -3 15 0 15 9 0 8 -7 15 -15 15 -8 0
-15 -4 -15 -9z"/>
<path d="M5700 4490 c0 -5 5 -10 10 -10 6 0 10 5 10 10 0 6 -4 10 -10 10 -5 0
-10 -4 -10 -10z"/>
<path d="M4485 4440 c3 -5 8 -10 11 -10 2 0 4 5 4 10 0 6 -5 10 -11 10 -5 0
-7 -4 -4 -10z"/>
<path d="M5650 4440 c20 -13 33 -13 25 0 -3 6 -14 10 -23 10 -15 0 -15 -2 -2
-10z"/>
<path d="M5080 4399 c0 -5 5 -7 10 -4 6 3 10 8 10 11 0 2 -4 4 -10 4 -5 0 -10
-5 -10 -11z"/>
<path d="M5731 4384 c0 -11 3 -14 6 -6 3 7 2 16 -1 19 -3 4 -6 -2 -5 -13z"/>
<path d="M5040 4356 c0 -2 14 -6 30 -8 17 -3 30 -1 30 4 0 4 -13 8 -30 8 -16
0 -30 -2 -30 -4z"/>
<path d="M5033 4308 c-5 -9 -4 -10 39 -11 17 0 33 4 35 9 4 12 -66 13 -74 2z"/>
<path d="M5081 4248 c0 -13 3 -17 6 -10 2 6 14 12 26 13 21 0 21 1 2 9 -31 13
-35 12 -34 -12z"/>
<path d="M5040 4200 c0 -5 5 -10 10 -10 6 0 10 5 10 10 0 6 -4 10 -10 10 -5 0
-10 -4 -10 -10z"/>
<path d="M5040 4051 c0 -6 5 -13 10 -16 6 -3 10 1 10 9 0 9 -4 16 -10 16 -5 0
-10 -4 -10 -9z"/>
<path d="M5090 4050 c0 -5 6 -10 14 -10 8 0 18 5 21 10 3 6 -3 10 -14 10 -12
0 -21 -4 -21 -10z"/>
<path d="M7561 4894 c0 -11 3 -14 6 -6 3 7 2 16 -1 19 -3 4 -6 -2 -5 -13z"/>
<path d="M1820 6035 c-16 -19 -5 -47 17 -43 11 2 18 12 18 27 0 29 -17 37 -35
16z"/>
<path d="M8390 6035 c-15 -18 -6 -45 14 -45 16 0 31 34 21 50 -9 14 -21 12
-35 -5z"/>
<path d="M6140 4499 c0 -5 5 -7 10 -4 6 3 10 8 10 11 0 2 -4 4 -10 4 -5 0 -10
-5 -10 -11z"/>
<path d="M6010 4190 c0 -5 5 -10 11 -10 5 0 7 5 4 10 -3 6 -8 10 -11 10 -2 0
-4 -4 -4 -10z"/>
<path d="M5896 4041 c-3 -5 1 -14 9 -21 13 -10 15 -9 15 9 0 21 -14 28 -24 12z"/>
<path d="M5855 4010 c3 -5 11 -10 16 -10 6 0 7 5 4 10 -3 6 -11 10 -16 10 -6
0 -7 -4 -4 -10z"/>
<path d="M5824 3978 c-4 -7 -4 -10 1 -6 4 4 14 3 22 -4 11 -8 12 -7 7 6 -7 19
-20 21 -30 4z"/>
<path d="M5810 3940 c0 -5 5 -10 11 -10 5 0 7 5 4 10 -3 6 -8 10 -11 10 -2 0
-4 -4 -4 -10z"/>
<path d="M5686 3911 c-4 -7 -5 -15 -2 -18 9 -9 19 4 14 18 -4 11 -6 11 -12 0z"/>
<path d="M5635 3880 c-3 -5 -1 -10 4 -10 6 0 11 5 11 10 0 6 -2 10 -4 10 -3 0
-8 -4 -11 -10z"/>
<path d="M5710 3849 c0 -5 5 -7 10 -4 6 3 10 8 10 11 0 2 -4 4 -10 4 -5 0 -10
-5 -10 -11z"/>
<path d="M5447 3780 c8 -30 21 -34 15 -5 -2 14 -8 25 -12 25 -5 0 -6 -9 -3
-20z"/>
<path d="M3950 4550 c0 -5 5 -10 11 -10 5 0 7 5 4 10 -3 6 -8 10 -11 10 -2 0
-4 -4 -4 -10z"/>
<path d="M4017 4499 c7 -7 15 -10 18 -7 3 3 -2 9 -12 12 -14 6 -15 5 -6 -5z"/>
<path d="M4048 4265 c4 -37 8 -40 32 -25 12 8 12 10 -3 16 -9 3 -17 15 -17 25
0 10 -4 19 -8 19 -4 0 -6 -16 -4 -35z"/>
<path d="M4120 4199 c0 -5 5 -7 10 -4 6 3 10 8 10 11 0 2 -4 4 -10 4 -5 0 -10
-5 -10 -11z"/>
<path d="M4195 4110 c-3 -5 -1 -10 4 -10 6 0 11 5 11 10 0 6 -2 10 -4 10 -3 0
-8 -4 -11 -10z"/>
<path d="M4260 4100 c0 -5 5 -10 10 -10 6 0 10 5 10 10 0 6 -4 10 -10 10 -5 0
-10 -4 -10 -10z"/>
<path d="M4160 4089 c0 -5 5 -7 10 -4 6 3 10 8 10 11 0 2 -4 4 -10 4 -5 0 -10
-5 -10 -11z"/>
<path d="M4250 4050 c0 -5 5 -10 11 -10 5 0 7 5 4 10 -3 6 -8 10 -11 10 -2 0
-4 -4 -4 -10z"/>
<path d="M4306 3961 c-4 -5 -2 -12 3 -15 5 -4 12 -2 15 3 4 5 2 12 -3 15 -5 4
-12 2 -15 -3z"/>
<path d="M4408 3873 c7 -3 16 -2 19 1 4 3 -2 6 -13 5 -11 0 -14 -3 -6 -6z"/>
<path d="M4589 3841 c13 -12 28 -21 34 -21 12 0 11 0 -28 24 l-30 17 24 -20z"/>
<path d="M4490 3830 c0 -5 5 -10 11 -10 5 0 7 5 4 10 -3 6 -8 10 -11 10 -2 0
-4 -4 -4 -10z"/>
<path d="M1770 5774 c0 -8 5 -12 10 -9 6 3 10 10 10 16 0 5 -4 9 -10 9 -5 0
-10 -7 -10 -16z"/>
<path d="M8440 5780 c0 -5 7 -10 15 -10 8 0 15 5 15 10 0 6 -7 10 -15 10 -8 0
-15 -4 -15 -10z"/>
<path d="M2861 5474 c0 -11 3 -14 6 -6 3 7 2 16 -1 19 -3 4 -6 -2 -5 -13z"/>
<path d="M2810 4984 c0 -8 5 -12 10 -9 6 4 8 11 5 16 -9 14 -15 11 -15 -7z"/>
<path d="M3061 3964 c0 -11 3 -14 6 -6 3 7 2 16 -1 19 -3 4 -6 -2 -5 -13z"/>
<path d="M8513 5323 c-21 -7 -15 -33 7 -33 11 0 20 6 20 14 0 18 -11 25 -27
19z"/>
<path d="M6645 4540 c-3 -5 -1 -10 4 -10 6 0 11 5 11 10 0 6 -2 10 -4 10 -3 0
-8 -4 -11 -10z"/>
<path d="M6636 4512 c-3 -6 -1 -14 5 -17 15 -10 25 3 12 16 -7 7 -13 7 -17 1z"/>
<path d="M6620 4476 c0 -2 7 -9 15 -16 13 -11 14 -10 9 4 -5 14 -24 23 -24 12z"/>
<path d="M6530 4339 c0 -5 5 -7 10 -4 6 3 10 8 10 11 0 2 -4 4 -10 4 -5 0 -10
-5 -10 -11z"/>
<path d="M6520 4300 c0 -5 5 -10 10 -10 6 0 10 5 10 10 0 6 -4 10 -10 10 -5 0
-10 -4 -10 -10z"/>
<path d="M6495 4270 c3 -5 8 -10 11 -10 2 0 4 5 4 10 0 6 -5 10 -11 10 -5 0
-7 -4 -4 -10z"/>
<path d="M6450 4190 c6 -11 15 -20 20 -20 6 0 5 9 -2 20 -7 11 -16 20 -21 20
-4 0 -3 -9 3 -20z"/>
<path d="M6421 4157 c2 -1 13 -9 24 -17 19 -14 19 -14 6 3 -7 9 -18 17 -24 17
-6 0 -8 -1 -6 -3z"/>
<path d="M6316 4025 c4 -9 15 -20 26 -26 19 -10 19 -10 3 15 -19 28 -38 35
-29 11z"/>
<path d="M6280 4000 c0 -5 5 -10 10 -10 6 0 10 5 10 10 0 6 -4 10 -10 10 -5 0
-10 -4 -10 -10z"/>
<path d="M6292 3943 c4 -22 24 -27 31 -9 3 8 -2 16 -14 19 -15 4 -19 1 -17
-10z"/>
<path d="M6220 3944 c0 -3 14 -19 30 -36 36 -35 41 -22 5 16 -23 25 -35 32
-35 20z"/>
<path d="M6201 3904 c0 -11 3 -14 6 -6 3 7 2 16 -1 19 -3 4 -6 -2 -5 -13z"/>
<path d="M6158 3873 c7 -3 16 -2 19 1 4 3 -2 6 -13 5 -11 0 -14 -3 -6 -6z"/>
<path d="M6170 3825 c7 -9 15 -13 17 -11 7 7 -7 26 -19 26 -6 0 -6 -6 2 -15z"/>
<path d="M6130 3806 c0 -8 5 -18 10 -21 6 -3 10 1 10 9 0 8 -4 18 -10 21 -5 3
-10 -1 -10 -9z"/>
<path d="M6087 3774 c9 -15 19 -22 21 -15 2 6 -3 18 -11 26 -24 24 -29 18 -10
-11z"/>
<path d="M6030 3770 c0 -5 5 -10 10 -10 6 0 10 5 10 10 0 6 -4 10 -10 10 -5 0
-10 -4 -10 -10z"/>
<path d="M1700 5000 c-12 -7 -12 -12 -2 -22 9 -9 15 -9 24 0 8 8 9 15 2 22 -5
5 -15 6 -24 0z"/>
<path d="M8513 4984 c-6 -16 15 -37 29 -28 4 3 8 14 8 25 0 23 -28 26 -37 3z"/>
<path d="M2631 4505 c1 -19 18 -51 18 -35 0 8 -4 22 -9 30 -5 8 -9 11 -9 5z"/>
<path d="M2608 4453 c7 -3 16 -2 19 1 4 3 -2 6 -13 5 -11 0 -14 -3 -6 -6z"/>
<path d="M2645 4390 c-3 -6 1 -7 9 -4 18 7 21 14 7 14 -6 0 -13 -4 -16 -10z"/>
<path d="M2634 4345 c-10 -8 -14 -15 -7 -15 19 0 43 11 43 21 0 13 -14 11 -36
-6z"/>
<path d="M2652 4291 c2 -7 7 -12 11 -12 12 1 9 15 -3 20 -7 2 -11 -2 -8 -8z"/>
<path d="M2700 4295 c0 -5 5 -17 10 -25 5 -8 10 -10 10 -5 0 6 -5 17 -10 25
-5 8 -10 11 -10 5z"/>
<path d="M2655 4240 c-3 -5 1 -10 9 -10 8 0 18 5 21 10 3 6 -1 10 -9 10 -8 0
-18 -4 -21 -10z"/>
<path d="M2685 4220 c-3 -5 -1 -10 4 -10 6 0 11 5 11 10 0 6 -2 10 -4 10 -3 0
-8 -4 -11 -10z"/>
<path d="M2740 4205 c0 -5 5 -17 10 -25 5 -8 10 -10 10 -5 0 6 -5 17 -10 25
-5 8 -10 11 -10 5z"/>
<path d="M2695 4180 c3 -5 13 -10 21 -10 8 0 14 5 14 10 0 6 -9 10 -21 10 -11
0 -17 -4 -14 -10z"/>
<path d="M2760 4151 c0 -6 4 -13 10 -16 6 -3 7 1 4 9 -7 18 -14 21 -14 7z"/>
<path d="M2725 4130 c-3 -5 -2 -10 4 -10 5 0 13 5 16 10 3 6 2 10 -4 10 -5 0
-13 -4 -16 -10z"/>
<path d="M2745 4090 c-3 -5 1 -10 10 -10 9 0 13 5 10 10 -3 6 -8 10 -10 10 -2
0 -7 -4 -10 -10z"/>
<path d="M2760 4060 c0 -5 7 -7 15 -4 8 4 15 8 15 10 0 2 -7 4 -15 4 -8 0 -15
-4 -15 -10z"/>
<path d="M2805 4040 c-3 -5 -12 -7 -20 -4 -10 4 -12 0 -8 -16 5 -19 7 -19 23
-5 9 8 20 12 24 8 4 -4 4 0 0 10 -7 19 -10 21 -19 7z"/>
<path d="M1728 4699 c-23 -13 -24 -48 -1 -45 9 2 22 10 27 19 14 22 -3 39 -26
26z"/>
<path d="M8491 4701 c-24 -15 5 -44 30 -30 17 9 18 12 5 24 -17 17 -17 17 -35
6z"/>
<path d="M8057 4564 c-4 -4 -7 -19 -6 -33 l0 -26 10 24 c10 26 8 47 -4 35z"/>
<path d="M8000 4459 c0 -5 9 -9 20 -9 11 0 20 2 20 4 0 2 -9 6 -20 9 -11 3
-20 1 -20 -4z"/>
<path d="M7946 4371 c-4 -7 -5 -15 -2 -18 9 -9 19 4 14 18 -4 11 -6 11 -12 0z"/>
<path d="M7980 4350 c0 -6 4 -9 9 -6 5 4 12 1 14 -4 3 -6 4 -5 3 2 -3 15 -26
23 -26 8z"/>
<path d="M7936 4323 c-6 -14 -5 -15 5 -6 7 7 10 15 7 18 -3 3 -9 -2 -12 -12z"/>
<path d="M7970 4310 c19 -13 30 -13 30 0 0 6 -10 10 -22 10 -19 0 -20 -2 -8
-10z"/>
<path d="M7930 4293 c0 -5 14 -14 30 -20 25 -9 30 -9 30 3 0 9 -4 12 -10 9 -5
-3 -19 -1 -30 5 -11 6 -20 7 -20 3z"/>
<path d="M7917 4253 c-4 -3 -7 -11 -7 -17 0 -6 5 -5 12 2 6 6 9 14 7 17 -3 3
-9 2 -12 -2z"/>
<path d="M7940 4242 c0 -9 28 -30 34 -25 13 13 5 29 -14 29 -11 0 -20 -2 -20
-4z"/>
<path d="M7906 4153 c-3 -3 -3 -10 0 -14 7 -12 34 -11 34 0 0 11 -26 22 -34
14z"/>
<path d="M7900 4110 c0 -5 7 -10 15 -10 8 0 15 5 15 10 0 6 -7 10 -15 10 -8 0
-15 -4 -15 -10z"/>
<path d="M7825 4020 c-3 -5 -1 -10 4 -10 6 0 11 5 11 10 0 6 -2 10 -4 10 -3 0
-8 -4 -11 -10z"/>
<path d="M7860 4000 c0 -6 7 -10 15 -10 8 0 15 2 15 4 0 2 -7 6 -15 10 -8 3
-15 1 -15 -4z"/>
<path d="M7848 3963 c7 -3 16 -2 19 1 4 3 -2 6 -13 5 -11 0 -14 -3 -6 -6z"/>
<path d="M7835 3930 c3 -5 11 -10 16 -10 6 0 7 5 4 10 -3 6 -11 10 -16 10 -6
0 -7 -4 -4 -10z"/>
<path d="M7800 3910 c0 -5 5 -10 10 -10 6 0 10 5 10 10 0 6 -4 10 -10 10 -5 0
-10 -4 -10 -10z"/>
<path d="M7785 3870 c3 -5 8 -10 11 -10 2 0 4 5 4 10 0 6 -5 10 -11 10 -5 0
-7 -4 -4 -10z"/>
<path d="M7746 3853 c-6 -14 -5 -15 5 -6 7 7 10 15 7 18 -3 3 -9 -2 -12 -12z"/>
<path d="M6110 2405 c-19 -7 -28 -14 -20 -14 8 0 29 6 45 14 39 17 21 18 -25
0z"/>
<path d="M8453 4443 c-18 -6 -16 -43 1 -43 16 0 30 30 19 40 -4 4 -14 5 -20 3z"/>
<path d="M1763 4435 c-3 -9 -3 -19 1 -22 3 -4 6 0 6 8 0 11 2 11 10 -1 8 -12
10 -11 10 8 0 25 -18 30 -27 7z"/>
<path d="M1800 4206 c0 -20 27 -28 34 -10 9 23 8 24 -14 24 -11 0 -20 -6 -20
-14z"/>
<path d="M8390 4221 c-7 -13 -7 -22 0 -26 13 -8 30 3 30 20 0 23 -18 27 -30 6z"/>
<path d="M7176 3834 c-23 -23 -20 -30 4 -9 11 10 20 20 20 22 0 7 -9 2 -24
-13z"/>
<path d="M7156 3787 c3 -10 9 -15 12 -12 3 3 0 11 -7 18 -10 9 -11 8 -5 -6z"/>
<path d="M7180 3780 c0 -5 5 -10 11 -10 5 0 7 5 4 10 -3 6 -8 10 -11 10 -2 0
-4 -4 -4 -10z"/>
<path d="M7122 3768 c-7 -9 -6 -17 3 -25 10 -10 16 -9 26 3 10 12 9 13 -6 7
-14 -5 -17 -3 -12 10 8 20 3 22 -11 5z"/>
<path d="M7170 3745 c-11 -13 -10 -14 4 -9 9 3 16 10 16 15 0 13 -6 11 -20 -6z"/>
<path d="M7015 3630 c-10 -11 -14 -20 -9 -20 5 0 15 9 22 20 7 11 11 20 9 20
-2 0 -12 -9 -22 -20z"/>
<path d="M6921 3515 c-35 -36 -61 -69 -57 -73 4 -3 15 3 24 15 9 11 37 44 60
72 24 28 42 51 40 51 -2 0 -32 -29 -67 -65z"/>
<path d="M6925 3480 c-16 -16 -25 -30 -19 -29 8 0 60 59 52 59 -3 0 -17 -13
-33 -30z"/>
<path d="M8133 4093 c-7 -3 -13 -9 -13 -14 0 -5 6 -8 13 -6 6 1 11 -4 9 -12
-3 -12 0 -12 12 -1 9 7 16 16 16 20 0 11 -22 18 -37 13z"/>
<path d="M8341 4041 c-9 -6 -10 -14 -5 -24 12 -20 56 -4 48 18 -7 17 -22 19
-43 6z"/>
<path d="M2130 4033 c0 -15 19 -37 26 -31 3 4 -1 14 -10 23 -9 9 -16 13 -16 8z"/>
<path d="M2180 4018 c0 -9 7 -22 17 -29 15 -13 15 -12 3 11 -17 34 -20 36 -20
18z"/>
<path d="M2167 3974 c3 -7 9 -14 14 -14 14 0 10 17 -5 23 -10 4 -13 1 -9 -9z"/>
<path d="M3591 3935 c9 -11 19 -27 22 -35 5 -13 6 -13 6 1 1 9 -9 24 -21 35
-23 19 -23 19 -7 -1z"/>
<path d="M3630 3877 c0 -10 41 -49 46 -45 2 3 -7 15 -21 28 -14 13 -25 20 -25
17z"/>
<path d="M3608 3813 c7 -3 16 -2 19 1 4 3 -2 6 -13 5 -11 0 -14 -3 -6 -6z"/>
<path d="M3648 3773 c7 -3 16 -2 19 1 4 3 -2 6 -13 5 -11 0 -14 -3 -6 -6z"/>
<path d="M3680 3730 c0 -5 5 -10 10 -10 6 0 10 5 10 10 0 6 -4 10 -10 10 -5 0
-10 -4 -10 -10z"/>
<path d="M3705 3690 c3 -5 8 -10 11 -10 2 0 4 5 4 10 0 6 -5 10 -11 10 -5 0
-7 -4 -4 -10z"/>
<path d="M3735 3670 c-3 -6 1 -7 9 -4 18 7 21 14 7 14 -6 0 -13 -4 -16 -10z"/>
<path d="M5075 3810 c-3 -5 -12 -7 -20 -3 -10 3 -15 -1 -15 -12 0 -11 6 -15
18 -12 9 3 31 8 47 12 27 7 28 8 10 15 -27 12 -33 12 -40 0z"/>
<path d="M2222 3843 c15 -34 28 -51 28 -35 0 18 -22 62 -31 62 -5 0 -3 -12 3
-27z"/>
<path d="M3250 3844 c0 -6 17 -26 37 -45 l38 -34 -30 35 c-16 19 -33 39 -37
45 -5 5 -8 5 -8 -1z"/>
<path d="M2972 3698 c-15 -15 -15 -28 0 -28 6 0 8 3 5 7 -4 3 -2 12 4 20 14
16 7 17 -9 1z"/>
<path d="M5043 3645 c-8 -22 6 -33 17 -15 13 20 12 30 0 30 -6 0 -13 -7 -17
-15z"/>
<path d="M4050 3119 c0 -5 5 -7 10 -4 6 3 10 8 10 11 0 2 -4 4 -10 4 -5 0 -10
-5 -10 -11z"/>
<path d="M6504 2825 c-19 -15 -19 -15 1 -8 18 6 19 5 6 -11 -13 -16 -12 -16
13 -5 14 7 23 15 19 18 -4 4 -11 10 -14 14 -3 4 -14 0 -25 -8z"/>
<path d="M6280 2735 c-33 -19 -21 -19 21 0 19 8 27 14 19 14 -8 0 -26 -6 -40
-14z"/>
<path d="M4480 2850 c0 -5 5 -10 10 -10 6 0 10 5 10 10 0 6 -4 10 -10 10 -5 0
-10 -4 -10 -10z"/>
<path d="M4266 2805 c-3 -8 -1 -15 4 -15 6 0 10 7 10 15 0 8 -2 15 -4 15 -2 0
-6 -7 -10 -15z"/>
<path d="M4310 2804 c0 -8 5 -12 10 -9 6 3 10 10 10 16 0 5 -4 9 -10 9 -5 0
-10 -7 -10 -16z"/>
<path d="M4350 2809 c0 -5 5 -7 10 -4 6 3 10 8 10 11 0 2 -4 4 -10 4 -5 0 -10
-5 -10 -11z"/>
<path d="M4380 2813 c0 -5 13 -8 30 -9 16 -1 27 3 24 7 -6 11 -54 12 -54 2z"/>
<path d="M4480 2810 c0 -5 7 -10 16 -10 8 0 12 5 9 10 -3 6 -10 10 -16 10 -5
0 -9 -4 -9 -10z"/>
<path d="M4535 2811 c-6 -11 9 -23 19 -14 9 9 7 23 -3 23 -6 0 -12 -4 -16 -9z"/>
<path d="M4590 2800 c0 -5 5 -10 10 -10 6 0 10 5 10 10 0 6 -4 10 -10 10 -5 0
-10 -4 -10 -10z"/>
<path d="M4217 2780 c-3 -11 -1 -20 4 -20 5 0 9 9 9 20 0 11 -2 20 -4 20 -2 0
-6 -9 -9 -20z"/>
<path d="M4260 2764 c0 -8 5 -12 10 -9 6 4 8 11 5 16 -9 14 -15 11 -15 -7z"/>
<path d="M4297 2774 c-8 -8 1 -24 14 -24 5 0 9 7 9 15 0 15 -12 20 -23 9z"/>
<path d="M4342 2771 c2 -7 7 -12 11 -12 12 1 9 15 -3 20 -7 2 -11 -2 -8 -8z"/>
<path d="M4386 2723 c1 -34 6 -59 13 -61 8 -3 10 4 5 24 -7 26 -6 27 24 21 17
-4 34 -2 37 3 3 6 0 10 -7 11 -7 1 -22 2 -33 3 -14 1 -20 8 -20 25 0 14 -5 26
-11 28 -6 2 -9 -19 -8 -54z"/>
<path d="M4426 2771 c-3 -5 1 -11 9 -15 8 -3 15 -1 15 4 0 13 -18 22 -24 11z"/>
<path d="M4482 2766 c1 -10 8 -17 13 -17 15 1 12 24 -3 29 -9 3 -13 -2 -10
-12z"/>
<path d="M4537 2774 c-8 -8 1 -24 14 -24 5 0 9 7 9 15 0 15 -12 20 -23 9z"/>
<path d="M4640 2764 c0 -8 5 -12 10 -9 6 3 10 10 10 16 0 5 -4 9 -10 9 -5 0
-10 -7 -10 -16z"/>
<path d="M4686 2765 c4 -8 10 -15 15 -15 5 0 9 7 9 15 0 8 -7 15 -15 15 -9 0
-12 -6 -9 -15z"/>
<path d="M4585 2760 c3 -5 10 -10 16 -10 5 0 9 5 9 10 0 6 -7 10 -16 10 -8 0
-12 -4 -9 -10z"/>
<path d="M4305 2730 c-3 -5 -24 -8 -45 -6 -22 2 -43 0 -46 -5 -3 -5 20 -9 50
-9 43 0 56 3 56 15 0 17 -6 19 -15 5z"/>
<path d="M4340 2725 c-10 -13 -9 -15 8 -15 15 0 20 5 16 15 -4 8 -7 15 -9 15
-1 0 -8 -7 -15 -15z"/>
<path d="M4590 2725 c-10 -13 -9 -15 9 -15 11 0 21 4 21 9 0 18 -18 21 -30 6z"/>
<path d="M4637 2726 c-6 -16 2 -28 14 -20 12 7 11 34 0 34 -5 0 -11 -6 -14
-14z"/>
<path d="M4185 2720 c-3 -5 -1 -10 4 -10 6 0 11 5 11 10 0 6 -2 10 -4 10 -3 0
-8 -4 -11 -10z"/>
<path d="M4488 2725 c-8 -9 3 -55 14 -55 5 0 6 9 3 20 -4 12 -2 20 5 20 6 0 8
5 5 10 -7 11 -19 13 -27 5z"/>
<path d="M4530 2720 c0 -5 9 -10 21 -10 11 0 17 5 14 10 -3 6 -13 10 -21 10
-8 0 -14 -4 -14 -10z"/>
<path d="M4680 2716 c0 -8 5 -18 10 -21 6 -3 10 3 10 14 0 12 -4 21 -10 21 -5
0 -10 -6 -10 -14z"/>
<path d="M4726 2705 c4 -8 8 -15 10 -15 2 0 4 7 4 15 0 8 -4 15 -10 15 -5 0
-7 -7 -4 -15z"/>
<path d="M4310 2680 c-37 -8 -31 -12 20 -14 18 0 30 4 30 12 0 6 -3 11 -7 11
-5 -1 -24 -5 -43 -9z"/>
<path d="M4430 2675 c-10 -13 -9 -15 9 -15 12 0 21 6 21 15 0 8 -4 15 -9 15
-5 0 -14 -7 -21 -15z"/>
<path d="M4534 2679 c-6 -11 -8 -11 39 -13 21 -2 36 2 34 7 -4 12 -66 17 -73
6z"/>
<path d="M4790 2680 c0 -5 5 -10 11 -10 5 0 7 5 4 10 -3 6 -8 10 -11 10 -2 0
-4 -4 -4 -10z"/>
<path d="M4130 2675 c0 -8 29 -12 39 -5 9 5 4 8 -13 8 -14 0 -26 -2 -26 -3z"/>
<path d="M4210 2676 c0 -8 51 -13 56 -5 3 5 -9 9 -25 9 -17 0 -31 -2 -31 -4z"/>
<path d="M4637 2674 c-8 -8 1 -24 14 -24 5 0 9 7 9 15 0 15 -12 20 -23 9z"/>
<path d="M4688 2674 c-6 -10 -8 -64 -2 -64 2 0 7 8 12 18 10 18 0 63 -10 46z"/>
<path d="M4740 2670 c0 -5 5 -10 10 -10 6 0 10 5 10 10 0 6 -4 10 -10 10 -5 0
-10 -4 -10 -10z"/>
<path d="M4195 2639 c-10 -15 3 -25 16 -12 7 7 7 13 1 17 -6 3 -14 1 -17 -5z"/>
<path d="M4246 2643 c-11 -11 -6 -23 9 -23 8 0 15 4 15 9 0 13 -16 22 -24 14z"/>
<path d="M4295 2640 c-11 -17 -1 -22 49 -22 25 -1 46 -5 46 -10 0 -5 4 -7 10
-3 21 13 -2 31 -38 29 -20 -1 -42 3 -49 8 -7 6 -14 5 -18 -2z"/>
<path d="M4426 2634 c-4 -9 -4 -19 -1 -22 2 -3 7 3 11 12 4 9 4 19 1 22 -2 3
-7 -3 -11 -12z"/>
<path d="M4466 2642 c-14 -14 -3 -19 34 -16 34 3 40 1 40 -16 0 -16 -7 -18
-41 -17 -23 1 -44 -3 -46 -9 -2 -6 13 -9 39 -8 24 1 49 -3 56 -8 16 -14 29 -1
14 14 -27 27 -14 40 38 34 30 -4 50 -2 50 4 0 6 -12 11 -27 11 -31 2 -56 5
-63 8 -14 6 -89 8 -94 3z"/>
<path d="M4135 2630 c-3 -5 1 -10 9 -10 8 0 18 5 21 10 3 6 -1 10 -9 10 -8 0
-18 -4 -21 -10z"/>
<path d="M4720 2630 c0 -5 5 -10 11 -10 5 0 7 5 4 10 -3 6 -8 10 -11 10 -2 0
-4 -4 -4 -10z"/>
<path d="M4760 2631 c0 -6 5 -13 10 -16 6 -3 10 1 10 9 0 9 -4 16 -10 16 -5 0
-10 -4 -10 -9z"/>
<path d="M4236 2591 c-8 -12 10 -24 23 -17 5 3 30 2 55 -3 31 -6 46 -5 44 1
-2 6 -21 12 -42 14 -21 2 -46 6 -56 9 -10 3 -21 1 -24 -4z"/>
<path d="M4629 2587 c-1 -7 0 -22 1 -35 1 -19 -3 -23 -21 -20 -20 3 -23 -1
-24 -34 -1 -25 3 -38 11 -38 8 0 12 11 11 28 -2 21 2 26 16 24 16 -3 21 8 18
36 -1 8 3 19 9 27 8 9 7 14 -5 19 -8 3 -15 0 -16 -7z"/>
<path d="M4811 2583 c0 -12 -4 -30 -7 -40 -5 -14 -4 -15 5 -7 7 6 11 24 8 40
-3 21 -4 23 -6 7z"/>
<path d="M4126 2581 c-13 -5 -3 -8 32 -9 28 0 54 3 57 9 7 11 -61 11 -89 0z"/>
<path d="M4381 2581 c-10 -6 -9 -10 3 -14 8 -3 18 -2 21 3 8 13 -9 20 -24 11z"/>
<path d="M4585 2579 c-10 -15 3 -25 16 -12 7 7 7 13 1 17 -6 3 -14 1 -17 -5z"/>
<path d="M4672 2578 c5 -14 67 -16 71 -2 1 5 -15 10 -36 11 -25 1 -37 -2 -35
-9z"/>
<path d="M4760 2582 c0 -15 11 -21 27 -15 12 5 12 7 1 14 -17 11 -28 11 -28 1z"/>
<path d="M4120 2541 c0 -12 5 -21 10 -21 6 0 10 6 10 14 0 8 -4 18 -10 21 -5
3 -10 -3 -10 -14z"/>
<path d="M4380 2535 c-14 -16 -3 -20 19 -6 8 5 9 11 3 15 -5 3 -15 -1 -22 -9z"/>
<path d="M4430 2540 c-8 -5 -12 -12 -9 -15 8 -8 39 5 39 16 0 11 -11 11 -30
-1z"/>
<path d="M4483 2543 c-7 -3 -13 -8 -13 -13 0 -12 25 -19 39 -11 15 10 -8 31
-26 24z"/>
<path d="M4671 2541 c-11 -7 -11 -10 0 -17 16 -9 61 -10 76 -1 7 4 14 3 18 -3
10 -16 25 -12 19 5 -5 11 -17 14 -43 11 -20 -2 -41 0 -46 4 -6 5 -17 5 -24 1z"/>
<path d="M4300 2528 c0 -11 47 -11 54 0 3 5 -8 9 -24 9 -17 0 -30 -4 -30 -9z"/>
<path d="M4540 2520 c0 -19 11 -26 23 -14 8 8 -3 34 -14 34 -5 0 -9 -9 -9 -20z"/>
<path d="M4675 2490 c-4 -6 -15 -8 -25 -5 -11 3 -20 0 -23 -9 -5 -12 0 -14 22
-10 16 3 31 1 35 -4 4 -8 16 -8 37 0 24 8 33 7 49 -7 18 -16 18 -16 13 5 -8
28 -44 42 -59 23 -9 -13 -12 -13 -27 1 -10 10 -18 12 -22 6z"/>
<path d="M4445 2480 c-10 -17 5 -32 20 -20 8 6 16 7 19 2 3 -5 17 -7 31 -4 27
5 35 -12 9 -22 -26 -10 -8 -22 33 -21 29 1 39 6 42 20 3 17 1 18 -13 6 -13
-11 -20 -11 -29 -2 -9 9 -9 14 2 20 11 7 11 10 0 17 -17 10 -50 10 -66 1 -6
-4 -14 -3 -18 3 -8 13 -22 13 -30 0z"/>
<path d="M4300 2430 c0 -5 7 -10 15 -10 8 0 15 5 15 10 0 6 -7 10 -15 10 -8 0
-15 -4 -15 -10z"/>
<path d="M4340 2430 c0 -5 5 -10 11 -10 5 0 7 5 4 10 -3 6 -8 10 -11 10 -2 0
-4 -4 -4 -10z"/>
<path d="M4379 2429 c-16 -10 8 -22 42 -21 21 0 29 -4 30 -16 0 -14 2 -13 8 3
5 11 6 25 4 31 -4 11 -67 14 -84 3z"/>
<path d="M4480 2425 c0 -8 5 -15 10 -15 6 0 10 7 10 15 0 8 -4 15 -10 15 -5 0
-10 -7 -10 -15z"/>
<path d="M4625 2432 c-12 -13 -3 -20 24 -18 41 2 48 13 11 18 -16 3 -32 2 -35
0z"/>
<path d="M4720 2431 c0 -6 5 -13 10 -16 6 -3 10 1 10 9 0 9 -4 16 -10 16 -5 0
-10 -4 -10 -9z"/>
<path d="M4490 2388 c0 -5 -1 -11 -2 -15 -4 -9 52 -11 84 -2 17 5 33 2 45 -6
11 -8 24 -10 34 -4 9 4 19 5 23 2 3 -3 6 2 6 12 0 14 -3 15 -14 6 -7 -6 -21
-9 -30 -6 -9 3 -24 8 -33 11 -27 9 -113 10 -113 2z"/>
<path d="M4437 2350 c3 -11 9 -20 14 -20 11 0 11 3 3 24 -9 23 -23 20 -17 -4z"/>
<path d="M4527 2334 c-11 -11 3 -24 18 -18 8 4 12 10 9 15 -6 11 -18 12 -27 3z"/>
<path d="M4580 2331 c0 -6 5 -13 10 -16 6 -3 10 1 10 9 0 9 -4 16 -10 16 -5 0
-10 -4 -10 -9z"/>
<path d="M2660 2730 c-14 -26 -3 -62 17 -58 25 5 40 35 27 55 -16 25 -31 27
-44 3z"/>
<path d="M5189 1983 c-12 -16 -12 -17 1 -6 8 6 33 13 55 16 l40 4 -41 1 c-29
1 -46 -3 -55 -15z"/>
</g>
</svg>
